<?xml version="1.0" encoding="UTF-8"?>
<svg xmlns="http://www.w3.org/2000/svg" xmlns:xlink="http://www.w3.org/1999/xlink" width="4108" height="1863" viewBox="0 0 4108 1863">
<path fill-rule="nonzero" fill="rgb(0%, 0%, 0%)" fill-opacity="1" d="M 1349.230469 8.441406 C 1341.96875 14.070312 1337.121094 20.089844 1334.699219 26.53125 C 1332.28125 32.960938 1327.039062 39.789062 1318.960938 47.019531 C 1310.890625 54.261719 1306.449219 61.890625 1305.640625 69.929688 C 1304.839844 77.96875 1301.199219 85.609375 1294.738281 92.839844 C 1288.28125 100.070312 1281.019531 112.128906 1272.941406 129.011719 C 1264.871094 145.890625 1258.820312 155.539062 1254.78125 157.941406 C 1250.75 160.359375 1247.109375 166.390625 1243.878906 176.03125 C 1240.648438 185.679688 1237.429688 191.710938 1234.191406 194.121094 C 1230.96875 196.53125 1228.941406 199.738281 1228.140625 203.769531 C 1227.328125 207.78125 1225.71875 210.199219 1223.300781 211 C 1220.871094 211.808594 1218.449219 215.820312 1216.03125 223.058594 C 1213.609375 230.289062 1209.160156 237.929688 1202.710938 245.960938 C 1196.25 254.011719 1191.410156 262.851562 1188.179688 272.488281 C 1184.949219 282.140625 1182.519531 286.960938 1180.910156 286.960938 C 1179.300781 286.960938 1177.28125 289.371094 1174.859375 294.199219 C 1172.441406 299.019531 1171.21875 304.640625 1171.21875 311.070312 C 1171.21875 317.511719 1170.019531 321.519531 1167.589844 323.128906 C 1165.171875 324.738281 1163.960938 327.550781 1163.960938 331.570312 C 1163.960938 335.589844 1162.75 339.210938 1160.320312 342.421875 C 1157.898438 345.640625 1156.289062 352.070312 1155.480469 361.710938 C 1154.679688 371.359375 1153.460938 376.589844 1151.851562 377.390625 C 1150.238281 378.191406 1149.429688 384.21875 1149.429688 395.480469 C 1149.429688 406.730469 1147.410156 416.78125 1143.378906 425.621094 C 1139.339844 434.460938 1131.671875 443.699219 1120.359375 453.351562 C 1109.058594 462.988281 1100.589844 469.019531 1094.929688 471.441406 C 1089.289062 473.851562 1086.050781 476.261719 1085.25 478.671875 C 1084.441406 481.078125 1082.421875 482.28125 1079.191406 482.28125 C 1075.960938 482.28125 1065.46875 487.921875 1047.710938 499.171875 C 1029.941406 510.421875 1018.640625 516.441406 1013.808594 517.261719 C 1008.960938 518.058594 1005.730469 519.660156 1004.109375 522.078125 C 1002.5 524.480469 999.269531 525.691406 994.425781 525.691406 C 989.582031 525.691406 981.914062 528.910156 971.421875 535.339844 C 960.921875 541.769531 950.835938 545.390625 941.144531 546.191406 C 931.457031 546.988281 923.789062 549.410156 918.136719 553.421875 C 912.488281 557.441406 905.21875 560.660156 896.339844 563.070312 C 887.460938 565.480469 877.371094 566.691406 866.070312 566.691406 C 854.769531 566.691406 848.300781 567.488281 846.691406 569.101562 C 845.078125 570.710938 823.679688 570.710938 782.511719 569.101562 C 741.335938 567.488281 712.273438 563.46875 695.324219 557.039062 C 678.367188 550.609375 664.648438 546.988281 654.148438 546.191406 C 643.65625 545.390625 632.761719 541.769531 621.457031 535.339844 C 610.15625 528.910156 597.238281 523.28125 582.707031 518.460938 C 568.175781 513.628906 560.101562 510.019531 558.488281 507.609375 C 556.875 505.191406 553.644531 503.988281 548.796875 503.988281 C 543.953125 503.988281 538.304688 501.179688 531.847656 495.550781 C 525.390625 489.929688 518.121094 486.308594 510.050781 484.699219 C 501.976562 483.089844 491.484375 478.269531 478.566406 470.230469 C 465.644531 462.191406 455.152344 457.371094 447.082031 455.769531 C 439.003906 454.148438 426.496094 448.929688 409.539062 440.089844 C 392.585938 431.25 384.113281 426.019531 384.113281 424.410156 C 384.113281 422.808594 379.269531 419.589844 369.578125 414.769531 C 359.894531 409.941406 353.03125 407.53125 348.996094 407.53125 C 344.957031 407.53125 342.136719 406.320312 340.515625 403.921875 C 338.902344 401.5 334.460938 399.890625 327.195312 399.089844 C 319.925781 398.289062 314.28125 396.679688 310.246094 394.269531 C 306.210938 391.859375 296.519531 390.660156 281.183594 390.660156 C 265.84375 390.660156 254.949219 392.261719 248.484375 395.480469 C 242.023438 398.691406 237.585938 403.109375 235.164062 408.738281 C 232.738281 414.359375 229.515625 418.789062 225.480469 422 C 221.4375 425.210938 218.210938 430.441406 215.789062 437.671875 C 213.367188 444.910156 209.332031 449.730469 203.675781 452.140625 C 198.03125 454.558594 194.398438 458.171875 192.78125 462.988281 C 191.167969 467.820312 188.339844 471.441406 184.304688 473.851562 C 180.269531 476.261719 176.632812 481.890625 173.40625 490.730469 C 170.175781 499.570312 167.355469 504.390625 164.933594 505.191406 C 162.511719 506 159.277344 510.820312 155.242188 519.660156 C 151.207031 528.511719 149.191406 543.378906 149.191406 564.269531 C 149.191406 585.179688 147.570312 598.039062 144.34375 602.859375 C 141.113281 607.679688 138.691406 616.921875 137.078125 630.589844 C 135.464844 644.25 132.234375 654.308594 127.386719 660.730469 C 122.550781 667.171875 119.722656 674 118.914062 681.230469 C 118.109375 688.460938 116.488281 694.089844 114.066406 698.109375 C 111.652344 702.128906 110.4375 707.351562 110.4375 713.78125 C 110.4375 720.210938 109.628906 723.839844 108.015625 724.640625 C 106.402344 725.441406 105.59375 739.109375 105.59375 765.628906 C 105.59375 792.148438 104.789062 806.21875 103.171875 807.828125 C 102.367188 808.640625 101.558594 809.441406 100.746094 810.238281 C 102.367188 809.839844 103.980469 809.441406 105.59375 809.03125 C 108.824219 808.230469 110.03125 804.621094 109.230469 798.179688 C 108.421875 791.761719 108.824219 788.140625 110.4375 787.328125 C 111.246094 786.929688 112.050781 786.53125 112.859375 786.128906 C 113.671875 788.941406 114.472656 791.761719 115.28125 794.570312 C 116.09375 797.378906 116.894531 800.191406 117.707031 803.011719 C 118.914062 802.199219 120.128906 801.398438 121.335938 800.601562 C 123.757812 798.980469 127.792969 801.808594 133.449219 809.03125 C 139.09375 816.269531 143.128906 819.089844 145.550781 817.46875 C 147.976562 815.871094 153.226562 815.871094 161.296875 817.46875 C 169.371094 819.089844 175.019531 822.699219 178.253906 828.328125 C 181.476562 833.960938 186.324219 835.960938 192.78125 834.359375 C 199.238281 832.75 203.28125 833.148438 204.894531 835.558594 C 206.503906 837.96875 213.773438 841.589844 226.6875 846.421875 C 233.144531 848.820312 239.601562 851.238281 246.058594 853.640625 C 245.257812 855.261719 244.449219 856.859375 243.644531 858.46875 C 242.835938 860.078125 242.023438 861.691406 241.222656 863.292969 C 243.644531 862.488281 246.058594 861.691406 248.484375 860.878906 C 253.328125 859.28125 256.964844 860.078125 259.386719 863.292969 C 261.800781 866.507812 264.628906 868.113281 267.863281 868.113281 C 269.476562 868.113281 271.085938 868.113281 272.707031 868.113281 C 272.707031 868.921875 272.707031 869.726562 272.707031 870.527344 C 272.707031 872.132812 278.355469 874.144531 289.65625 876.558594 C 300.960938 878.964844 310.648438 882.589844 318.71875 887.410156 C 326.789062 892.234375 342.53125 898.265625 365.949219 905.492188 C 389.355469 912.730469 404.699219 918.355469 411.960938 922.375 C 419.226562 926.394531 427.304688 928.804688 436.183594 929.605469 C 445.066406 930.417969 454.746094 933.625 465.246094 939.25 C 470.488281 942.070312 475.738281 944.882812 480.988281 947.695312 C 472.914062 948.902344 464.84375 950.105469 456.765625 951.3125 C 440.625 953.726562 424.476562 953.320312 408.332031 950.105469 C 400.261719 948.5 392.183594 946.894531 384.113281 945.28125 C 384.914062 947.292969 385.726562 949.300781 386.535156 951.3125 C 387.335938 953.320312 388.148438 955.332031 388.957031 957.339844 C 390.570312 956.539062 392.183594 955.734375 393.796875 954.925781 C 397.027344 953.320312 401.46875 952.917969 407.121094 953.726562 C 412.769531 954.527344 415.597656 957.339844 415.597656 962.164062 C 415.597656 964.570312 415.597656 966.984375 415.597656 969.402344 C 413.582031 968.996094 411.5625 968.589844 409.539062 968.195312 C 405.503906 967.390625 403.082031 968.195312 402.277344 970.601562 C 401.46875 973.015625 398.640625 974.222656 393.796875 974.222656 C 388.957031 974.222656 384.519531 975.421875 380.476562 977.839844 C 376.441406 980.246094 363.523438 982.660156 341.730469 985.070312 C 319.925781 987.484375 308.226562 989.890625 306.609375 992.304688 C 304.996094 994.722656 300.148438 995.117188 292.082031 993.515625 C 284.011719 991.902344 279.570312 991.902344 278.761719 993.515625 C 277.949219 995.117188 273.511719 995.523438 265.441406 994.722656 C 257.363281 993.910156 252.121094 994.722656 249.699219 997.128906 C 247.273438 999.542969 242.429688 1001.148438 235.164062 1001.953125 C 227.902344 1002.753906 208.523438 1002.355469 177.039062 1000.742188 C 145.550781 999.140625 122.144531 999.140625 106.808594 1000.742188 C 91.46875 1002.355469 82.582031 1002.753906 80.167969 1001.953125 C 77.746094 1001.148438 76.125 999.140625 75.324219 995.921875 C 74.511719 992.710938 75.726562 989.492188 78.953125 986.277344 C 82.183594 983.058594 83.394531 972.609375 82.582031 954.925781 C 82.183594 946.082031 81.78125 937.25 81.375 928.40625 C 82.988281 929.605469 84.609375 930.8125 86.21875 932.019531 C 87.832031 933.230469 89.445312 934.429688 91.066406 935.636719 C 90.660156 928.40625 90.253906 921.167969 89.851562 913.929688 C 89.445312 906.703125 89.046875 899.464844 88.644531 892.234375 C 90.253906 893.433594 91.867188 894.640625 93.488281 895.847656 C 95.101562 897.054688 96.710938 898.265625 98.324219 899.464844 C 98.730469 895.046875 99.136719 890.621094 99.539062 886.203125 C 100.351562 877.359375 99.945312 871.734375 98.324219 869.320312 C 97.523438 868.113281 96.710938 866.914062 95.910156 865.707031 C 97.523438 864.902344 99.136719 864.101562 100.746094 863.292969 C 103.980469 861.691406 105.59375 858.46875 105.59375 853.640625 C 105.59375 851.238281 105.59375 848.820312 105.59375 846.421875 C 103.980469 847.621094 102.367188 848.820312 100.746094 850.03125 C 99.136719 851.238281 97.523438 852.441406 95.910156 853.640625 C 95.910156 851.238281 95.910156 848.820312 95.910156 846.421875 C 95.910156 841.589844 97.117188 838.371094 99.539062 836.769531 C 101.960938 835.160156 102.765625 832.351562 101.960938 828.328125 C 101.558594 826.320312 101.152344 824.308594 100.746094 822.300781 C 99.539062 824.710938 98.324219 827.121094 97.117188 829.53125 C 94.695312 834.359375 93.488281 840.789062 93.488281 848.820312 C 93.488281 856.859375 92.273438 861.691406 89.851562 863.292969 C 87.425781 864.902344 85.816406 874.945312 85.003906 893.433594 C 84.203125 911.929688 82.582031 922.773438 80.167969 925.992188 C 77.746094 929.207031 76.53125 939.25 76.53125 956.132812 C 76.53125 973.015625 74.511719 985.878906 70.476562 994.722656 C 66.441406 1003.554688 64.425781 1011.597656 64.425781 1018.832031 C 64.425781 1026.0625 63.210938 1030.886719 60.789062 1033.300781 C 58.363281 1035.707031 56.753906 1065.453125 55.941406 1122.519531 C 55.140625 1179.597656 55.140625 1221.792969 55.941406 1249.121094 C 56.753906 1276.453125 58.363281 1291.324219 60.789062 1293.738281 C 63.210938 1296.144531 64.425781 1300.167969 64.425781 1305.792969 C 64.425781 1311.417969 63.210938 1315.839844 60.789062 1319.058594 C 58.363281 1322.269531 57.15625 1326.695312 57.15625 1332.320312 C 57.15625 1337.945312 52.71875 1344.378906 43.835938 1351.609375 C 34.957031 1358.847656 27.691406 1367.6875 22.042969 1378.136719 C 16.386719 1388.582031 13.558594 1398.632812 13.558594 1408.277344 C 13.558594 1413.101562 13.558594 1417.921875 13.558594 1422.746094 C 14.371094 1422.347656 15.179688 1421.945312 15.984375 1421.539062 C 17.601562 1420.734375 18.808594 1415.914062 19.621094 1407.070312 C 20.421875 1398.230469 21.636719 1393.8125 23.25 1393.8125 C 24.863281 1393.8125 26.878906 1390.195312 29.300781 1382.957031 C 31.726562 1375.722656 34.148438 1372.105469 36.570312 1372.105469 C 38.992188 1372.105469 42.226562 1369.292969 46.261719 1363.667969 C 50.296875 1358.042969 55.140625 1355.230469 60.789062 1355.230469 C 66.441406 1355.230469 72.898438 1357.640625 80.167969 1362.460938 C 87.425781 1367.285156 96.710938 1370.898438 108.015625 1373.3125 C 119.316406 1375.722656 152.820312 1380.144531 208.523438 1386.574219 C 264.226562 1393.007812 318.316406 1397.832031 370.792969 1401.042969 C 423.261719 1404.257812 470.488281 1405.871094 512.46875 1405.871094 C 554.453125 1405.871094 591.179688 1407.875 622.664062 1411.894531 C 654.148438 1415.914062 699.359375 1419.132812 758.296875 1421.539062 C 817.222656 1423.953125 874.546875 1427.570312 930.246094 1432.390625 C 985.949219 1437.214844 1017.839844 1438.023438 1025.910156 1434.804688 C 1033.988281 1431.589844 1037.621094 1425.160156 1036.808594 1415.515625 C 1036 1405.871094 1037.621094 1396.625 1041.648438 1387.78125 C 1045.691406 1378.9375 1048.519531 1368.085938 1050.128906 1355.230469 C 1051.75 1342.367188 1054.171875 1333.121094 1057.390625 1327.496094 C 1060.628906 1321.871094 1064.660156 1319.457031 1069.511719 1320.257812 C 1074.351562 1321.070312 1078.390625 1319.859375 1081.609375 1316.644531 C 1084.839844 1313.425781 1086.859375 1309.8125 1087.671875 1305.792969 C 1088.480469 1301.769531 1090.898438 1298.5625 1094.929688 1296.144531 C 1098.980469 1293.738281 1100.988281 1290.519531 1100.988281 1286.5 C 1100.988281 1282.480469 1099.78125 1279.667969 1097.359375 1278.0625 C 1094.929688 1276.453125 1094.929688 1272.835938 1097.359375 1267.210938 C 1099.78125 1261.585938 1107.859375 1251.941406 1121.570312 1238.277344 C 1135.300781 1224.609375 1147 1217.777344 1156.691406 1217.777344 C 1166.378906 1217.777344 1171.628906 1213.355469 1172.441406 1204.511719 C 1173.238281 1195.667969 1174.859375 1190.449219 1177.28125 1188.835938 C 1179.699219 1187.230469 1182.121094 1187.636719 1184.539062 1190.042969 C 1186.960938 1192.457031 1190.199219 1193.261719 1194.230469 1192.457031 C 1198.269531 1191.648438 1200.691406 1189.640625 1201.5 1186.429688 C 1202.300781 1183.210938 1201.910156 1180.398438 1200.289062 1177.984375 C 1199.480469 1176.785156 1198.671875 1175.578125 1197.859375 1174.367188 C 1199.480469 1173.972656 1386.769531 1034.507812 1387.980469 1033.300781 C 1390.398438 1030.886719 1397.671875 1013.605469 1404.941406 1010.390625 C 1412.210938 1007.179688 1416.238281 1002.355469 1417.039062 995.921875 C 1417.851562 989.492188 1422.699219 984.671875 1431.578125 981.453125 C 1440.460938 978.234375 1446.511719 972.609375 1449.738281 964.570312 C 1452.96875 956.539062 1457.808594 951.3125 1464.269531 948.902344 C 1470.730469 946.488281 1475.980469 943.269531 1480.011719 939.25 C 1484.058594 935.238281 1486.878906 930.8125 1488.5 925.992188 C 1490.109375 921.167969 1493.738281 917.953125 1499.390625 916.347656 C 1505.039062 914.742188 1508.269531 911.117188 1509.070312 905.492188 C 1509.890625 899.867188 1514.730469 895.046875 1523.609375 891.027344 C 1532.488281 887.007812 1537.339844 882.183594 1538.140625 876.558594 C 1538.949219 870.933594 1540.960938 866.507812 1544.199219 863.292969 C 1547.421875 860.078125 1551.859375 857.671875 1557.519531 856.058594 C 1563.160156 854.449219 1566.398438 850.828125 1567.199219 845.210938 C 1568.011719 839.578125 1572.859375 833.960938 1581.730469 828.328125 C 1590.609375 822.699219 1595.859375 817.078125 1597.480469 811.449219 C 1599.089844 805.820312 1603.53125 801 1610.800781 796.980469 C 1618.070312 792.960938 1622.101562 788.539062 1622.910156 783.710938 C 1623.710938 778.890625 1625.320312 775.28125 1627.75 772.859375 C 1630.171875 770.460938 1633.808594 768.441406 1638.648438 766.828125 C 1643.488281 765.230469 1646.71875 762.011719 1648.339844 757.191406 C 1649.949219 752.371094 1654.390625 746.738281 1661.660156 740.308594 C 1668.921875 733.878906 1673.359375 728.660156 1674.980469 724.640625 C 1676.589844 720.621094 1681.429688 715.800781 1689.511719 710.171875 C 1697.578125 704.539062 1703.230469 697.710938 1706.460938 689.671875 C 1709.691406 681.628906 1714.128906 676.410156 1719.78125 674 C 1725.429688 671.578125 1728.660156 667.96875 1729.46875 663.140625 C 1730.28125 658.320312 1734.320312 654.308594 1741.578125 651.089844 C 1748.839844 647.871094 1753.691406 643.449219 1756.109375 637.828125 C 1758.53125 632.199219 1764.988281 628.179688 1775.480469 625.769531 C 1785.980469 623.359375 1802.929688 627.78125 1826.351562 639.03125 C 1849.75 650.28125 1866.308594 657.121094 1876 659.53125 C 1885.679688 661.941406 1892.539062 664.75 1896.578125 667.96875 C 1900.621094 671.191406 1907.078125 673.589844 1915.960938 675.199219 C 1924.839844 676.808594 1933.71875 680.03125 1942.601562 684.851562 C 1951.480469 689.671875 1959.140625 692.078125 1965.601562 692.078125 C 1972.070312 692.078125 1976.5 693.289062 1978.929688 695.691406 C 1981.339844 698.109375 1985.78125 699.320312 1992.25 699.320312 C 1998.710938 699.320312 2003.550781 700.921875 2006.769531 704.140625 C 2010.011719 707.351562 2017.269531 708.558594 2028.570312 707.761719 C 2039.871094 706.949219 2064.5 708.558594 2102.441406 712.578125 C 2140.378906 716.601562 2164.199219 720.210938 2173.878906 723.429688 C 2183.570312 726.648438 2190.839844 727.851562 2195.679688 727.050781 C 2200.53125 726.238281 2208.199219 727.050781 2218.691406 729.460938 C 2229.191406 731.871094 2235.238281 734.28125 2236.851562 736.691406 C 2238.46875 739.109375 2246.949219 741.519531 2262.289062 743.929688 C 2277.621094 746.339844 2286.910156 748.75 2290.140625 751.171875 C 2293.359375 753.570312 2297 754.78125 2301.039062 754.78125 C 2305.070312 754.78125 2307.898438 755.988281 2309.511719 758.390625 C 2311.128906 760.808594 2315.160156 762.011719 2321.621094 762.011719 C 2328.078125 762.011719 2331.710938 763.21875 2332.519531 765.628906 C 2333.320312 768.039062 2341.398438 771.660156 2356.738281 776.480469 C 2372.078125 781.308594 2380.550781 784.921875 2382.160156 787.328125 C 2383.789062 789.75 2387.820312 791.351562 2394.28125 792.148438 C 2400.730469 792.960938 2418.898438 801 2448.769531 816.269531 C 2478.640625 831.539062 2494.378906 840.390625 2496 842.789062 C 2497.609375 845.210938 2503.660156 848.429688 2514.160156 852.441406 C 2524.660156 856.460938 2534.339844 861.28125 2543.21875 866.914062 C 2552.109375 872.539062 2559.371094 878.964844 2565.019531 886.203125 C 2570.671875 893.433594 2574.308594 902.679688 2575.921875 913.929688 C 2577.53125 925.1875 2574.710938 944.480469 2567.449219 971.808594 C 2560.179688 999.140625 2552.109375 1023.25 2543.21875 1044.152344 C 2534.339844 1065.046875 2520.621094 1090.367188 2502.050781 1120.113281 C 2483.480469 1149.851562 2467.339844 1171.960938 2453.621094 1186.429688 C 2439.890625 1200.894531 2431.820312 1210.542969 2429.390625 1215.363281 C 2426.96875 1220.1875 2415.269531 1232.644531 2394.28125 1252.742188 C 2373.289062 1272.835938 2326.058594 1309.8125 2252.589844 1363.667969 C 2179.128906 1417.527344 2135.539062 1452.085938 2121.820312 1467.355469 C 2108.089844 1482.632812 2102.039062 1491.875 2103.648438 1495.089844 C 2105.269531 1498.308594 2142.410156 1502.726562 2215.058594 1508.351562 C 2287.71875 1513.984375 2344.21875 1515.984375 2384.589844 1514.382812 C 2424.949219 1512.777344 2457.648438 1513.171875 2482.679688 1515.589844 C 2507.699219 1517.996094 2547.671875 1519.203125 2602.558594 1519.203125 C 2657.449219 1519.203125 2730.519531 1517.597656 2821.738281 1514.382812 C 2912.960938 1511.164062 2997.730469 1506.339844 3076.039062 1499.914062 C 3154.351562 1493.484375 3237.898438 1485.445312 3326.710938 1475.800781 C 3415.511719 1466.15625 3501.488281 1454.5 3584.628906 1440.835938 C 3667.78125 1427.171875 3727.929688 1415.515625 3765.070312 1405.871094 C 3802.199219 1396.21875 3833.28125 1389.386719 3858.308594 1385.375 C 3883.339844 1381.355469 3914.820312 1372.511719 3952.761719 1358.847656 C 3990.710938 1345.179688 4012.910156 1336.734375 4019.359375 1333.527344 C 4025.820312 1330.308594 4031.480469 1325.484375 4036.320312 1319.058594 C 4041.160156 1312.625 4048.429688 1310.214844 4058.109375 1311.820312 C 4067.808594 1313.425781 4074.671875 1316.246094 4078.699219 1320.257812 C 4082.738281 1324.277344 4085.570312 1329.101562 4087.179688 1334.734375 C 4088.789062 1340.359375 4089.191406 1349.203125 4088.390625 1361.253906 C 4087.988281 1367.285156 4087.578125 1373.3125 4087.179688 1379.34375 C 4088.390625 1379.34375 4089.601562 1379.34375 4090.808594 1379.34375 C 4092.019531 1379.34375 4093.230469 1379.34375 4094.441406 1379.34375 C 4093.640625 1381.75 4092.820312 1384.167969 4092.019531 1386.574219 C 4090.398438 1391.394531 4090.808594 1395.417969 4093.230469 1398.632812 C 4095.648438 1401.851562 4097.671875 1409.882812 4099.289062 1422.746094 C 4100.898438 1435.609375 4094.039062 1447.265625 4078.699219 1457.710938 C 4063.359375 1468.167969 4037.53125 1479.417969 4001.199219 1491.476562 C 3964.878906 1503.527344 3903.519531 1518.804688 3817.140625 1537.292969 C 3730.75 1555.78125 3638.71875 1572.257812 3541.039062 1586.726562 C 3443.359375 1601.195312 3393.710938 1609.234375 3392.089844 1610.839844 C 3390.480469 1612.445312 3373.128906 1616.066406 3340.03125 1621.691406 C 3306.921875 1627.316406 3278.269531 1634.554688 3254.050781 1643.394531 C 3229.828125 1652.238281 3203.191406 1664.695312 3174.128906 1680.769531 C 3145.070312 1696.847656 3116.410156 1708.902344 3088.148438 1716.941406 C 3059.890625 1724.980469 3016.300781 1732.617188 2957.371094 1739.855469 C 2898.429688 1747.082031 2845.960938 1751.507812 2799.949219 1753.113281 C 2753.929688 1754.71875 2725.269531 1753.917969 2713.96875 1750.707031 C 2702.660156 1747.488281 2689.339844 1740.25 2674 1729 C 2658.671875 1717.742188 2641.308594 1710.910156 2621.929688 1708.503906 C 2602.558594 1706.089844 2579.140625 1705.285156 2551.699219 1706.089844 C 2524.25 1706.898438 2505.28125 1708.902344 2494.789062 1712.117188 C 2484.289062 1715.335938 2476.21875 1716.140625 2470.570312 1714.535156 C 2464.910156 1712.921875 2445.140625 1712.523438 2411.230469 1713.328125 C 2377.328125 1714.128906 2349.070312 1715.335938 2326.460938 1716.941406 C 2303.859375 1718.554688 2291.75 1720.160156 2290.140625 1721.765625 C 2288.519531 1723.375 2248.160156 1724.179688 2169.050781 1724.179688 C 2089.929688 1724.179688 2042.300781 1725.785156 2026.148438 1729 C 2010.011719 1732.21875 1995.070312 1740.65625 1981.339844 1754.320312 C 1967.628906 1767.984375 1950.671875 1775.621094 1930.480469 1777.226562 C 1910.300781 1778.839844 1829.171875 1778.433594 1687.089844 1776.027344 C 1545 1773.609375 1418.261719 1772.808594 1306.851562 1773.609375 C 1195.441406 1774.414062 1136.109375 1772.808594 1128.839844 1768.789062 C 1121.570312 1764.769531 1113.5 1757.9375 1104.621094 1748.292969 C 1095.738281 1738.644531 1086.050781 1731.410156 1075.558594 1726.585938 C 1065.070312 1721.765625 1025.109375 1719.355469 955.679688 1719.355469 C 886.253906 1719.355469 835.792969 1718.148438 804.308594 1715.734375 C 772.824219 1713.328125 702.988281 1710.910156 594.816406 1708.503906 C 486.636719 1706.089844 405.90625 1702.472656 352.628906 1697.652344 C 299.347656 1692.828125 261.800781 1690.414062 240.007812 1690.414062 C 218.210938 1690.414062 183.097656 1686.796875 134.65625 1679.570312 C 86.21875 1672.332031 55.546875 1666.707031 42.621094 1662.6875 C 29.707031 1658.667969 21.636719 1655.050781 18.40625 1651.832031 C 15.179688 1648.617188 13.964844 1628.117188 14.773438 1590.339844 C 15.578125 1552.5625 16.792969 1531.660156 18.40625 1527.648438 C 20.019531 1523.628906 20.828125 1511.570312 20.828125 1491.476562 C 20.828125 1471.375 20.019531 1458.117188 18.40625 1451.679688 C 16.792969 1445.253906 17.199219 1441.234375 19.621094 1439.628906 C 22.042969 1438.023438 22.042969 1435.203125 19.621094 1431.191406 C 18.40625 1429.179688 17.199219 1427.171875 15.984375 1425.160156 C 15.578125 1441.640625 15.179688 1458.117188 14.773438 1474.59375 C 13.964844 1507.546875 12.757812 1524.429688 11.136719 1525.234375 C 9.523438 1526.035156 8.714844 1546.535156 8.714844 1586.726562 C 8.714844 1626.917969 7.507812 1647.8125 5.085938 1649.425781 C 2.664062 1651.03125 1.050781 1665.902344 0.238281 1694.035156 C -0.5625 1722.167969 0.644531 1740.65625 3.878906 1749.5 C 7.101562 1758.339844 10.335938 1763.164062 13.558594 1763.964844 C 16.792969 1764.769531 21.636719 1768.382812 28.09375 1774.820312 C 34.550781 1781.246094 39.800781 1784.464844 43.835938 1784.464844 C 47.871094 1784.464844 51.105469 1785.671875 53.519531 1788.078125 C 55.941406 1790.492188 70.074219 1791.703125 95.910156 1791.703125 C 121.738281 1791.703125 136.273438 1793.304688 139.5 1796.523438 C 142.734375 1799.734375 151.613281 1801.347656 166.140625 1801.347656 C 180.675781 1801.347656 188.339844 1802.148438 189.148438 1803.753906 C 189.960938 1805.359375 204.082031 1806.167969 231.53125 1806.167969 C 258.984375 1806.167969 273.511719 1805.359375 275.121094 1803.753906 C 276.742188 1802.148438 280.371094 1801.347656 286.027344 1801.347656 C 291.675781 1801.347656 294.90625 1802.148438 295.710938 1803.753906 C 296.519531 1805.359375 302.574219 1806.167969 313.875 1806.167969 C 319.53125 1806.167969 325.175781 1806.167969 330.832031 1806.167969 C 330.832031 1806.972656 330.832031 1807.773438 330.832031 1808.578125 C 330.832031 1810.1875 334.058594 1811.390625 340.515625 1812.191406 C 346.972656 1813 351.414062 1814.605469 353.835938 1817.019531 C 356.257812 1819.429688 371.59375 1821.4375 399.855469 1823.042969 C 428.109375 1824.65625 443.851562 1827.867188 447.082031 1832.6875 C 450.308594 1837.511719 453.539062 1840.332031 456.765625 1841.132812 C 459.996094 1841.9375 480.988281 1841.9375 519.734375 1841.132812 C 558.488281 1840.332031 580.6875 1841.132812 586.335938 1843.542969 C 591.988281 1845.957031 602.078125 1847.164062 616.613281 1847.164062 C 631.140625 1847.164062 643.253906 1848.363281 652.941406 1850.777344 C 662.625 1853.1875 668.683594 1853.589844 671.109375 1851.984375 C 673.53125 1850.375 684.425781 1849.171875 703.800781 1848.363281 C 723.171875 1847.5625 746.183594 1848.769531 772.824219 1851.984375 C 799.460938 1855.195312 819.238281 1856.808594 832.164062 1856.808594 C 845.078125 1856.808594 855.164062 1855.601562 862.433594 1853.1875 C 869.699219 1850.777344 883.832031 1850.777344 904.816406 1853.1875 C 925.808594 1855.601562 947.601562 1856.402344 970.207031 1855.601562 C 992.8125 1854.796875 1005.320312 1852.789062 1007.75 1849.570312 C 1010.171875 1846.355469 1019.050781 1844.34375 1034.390625 1843.542969 C 1049.730469 1842.738281 1059.410156 1844.34375 1063.449219 1848.363281 C 1067.488281 1852.382812 1074.75 1854.796875 1085.25 1855.601562 C 1095.738281 1856.402344 1108.25 1856.808594 1122.789062 1856.808594 C 1137.320312 1856.808594 1147 1855.601562 1151.851562 1853.1875 C 1156.691406 1850.777344 1174.859375 1850.375 1206.339844 1851.984375 C 1237.828125 1853.589844 1255.179688 1853.589844 1258.410156 1851.984375 C 1261.640625 1850.375 1274.558594 1849.171875 1297.160156 1848.363281 C 1319.769531 1847.5625 1337.121094 1847.164062 1349.230469 1847.164062 C 1361.339844 1847.164062 1368.199219 1848.363281 1369.820312 1850.777344 C 1371.429688 1853.1875 1384.351562 1854.394531 1408.570312 1854.394531 C 1432.789062 1854.394531 1445.710938 1853.1875 1447.320312 1850.777344 C 1448.929688 1848.363281 1452.160156 1847.164062 1457.011719 1847.164062 C 1461.851562 1847.164062 1465.078125 1848.363281 1466.691406 1850.777344 C 1468.308594 1853.1875 1475.179688 1855.195312 1487.28125 1856.808594 C 1499.390625 1858.414062 1519.980469 1859.214844 1549.039062 1859.214844 C 1578.109375 1859.214844 1594.25 1858.414062 1597.480469 1856.808594 C 1600.699219 1855.195312 1606.761719 1854.394531 1615.640625 1854.394531 C 1624.519531 1854.394531 1629.769531 1855.195312 1631.390625 1856.808594 C 1633 1858.414062 1656.011719 1859.214844 1700.410156 1859.214844 C 1744.808594 1859.214844 1767.820312 1858.414062 1769.429688 1856.808594 C 1771.039062 1855.195312 1776.289062 1854.394531 1785.171875 1854.394531 C 1794.050781 1854.394531 1798.898438 1855.195312 1799.710938 1856.808594 C 1800.511719 1858.414062 1843.699219 1859.214844 1929.28125 1859.214844 C 2014.839844 1859.214844 2060.859375 1860.019531 2067.320312 1861.632812 C 2073.78125 1863.234375 2077.820312 1863.234375 2079.429688 1861.632812 C 2081.050781 1860.019531 2088.710938 1858.820312 2102.441406 1858.007812 C 2116.160156 1857.207031 2142.800781 1858.007812 2182.359375 1860.421875 C 2221.921875 1862.832031 2242.511719 1863.234375 2244.121094 1861.632812 C 2245.730469 1860.019531 2251.789062 1859.214844 2262.289062 1859.214844 C 2272.78125 1859.214844 2279.230469 1858.414062 2281.660156 1856.808594 C 2284.078125 1855.195312 2288.519531 1855.195312 2294.980469 1856.808594 C 2301.429688 1858.414062 2324.449219 1859.214844 2364.011719 1859.214844 C 2403.558594 1859.214844 2429.390625 1858.414062 2441.5 1856.808594 C 2453.621094 1855.195312 2462.890625 1852.382812 2469.351562 1848.363281 C 2475.820312 1844.34375 2497.609375 1843.144531 2534.75 1844.75 C 2571.890625 1846.355469 2590.851562 1846.355469 2591.660156 1844.75 C 2592.46875 1843.144531 2613.050781 1842.339844 2653.421875 1842.339844 C 2693.78125 1842.339844 2714.769531 1841.132812 2716.390625 1838.71875 C 2718 1836.3125 2743.03125 1835.105469 2791.46875 1835.105469 C 2839.910156 1835.105469 2864.929688 1834.300781 2866.550781 1832.6875 C 2868.160156 1831.082031 2871.390625 1831.082031 2876.230469 1832.6875 C 2881.078125 1834.300781 2887.128906 1835.105469 2894.398438 1835.105469 C 2901.660156 1835.105469 2905.699219 1834.300781 2906.5 1832.6875 C 2907.320312 1831.082031 2913.769531 1831.082031 2925.890625 1832.6875 C 2937.988281 1834.300781 2947.679688 1833.5 2954.949219 1830.28125 C 2962.210938 1827.0625 2981.988281 1825.457031 3014.28125 1825.457031 C 3046.570312 1825.457031 3063.121094 1824.65625 3063.929688 1823.042969 C 3064.738281 1821.4375 3069.980469 1820.636719 3079.671875 1820.636719 C 3089.359375 1820.636719 3095.410156 1819.429688 3097.839844 1817.019531 C 3100.261719 1814.605469 3116 1813.398438 3145.070312 1813.398438 C 3174.128906 1813.398438 3189.871094 1812.191406 3192.289062 1809.785156 C 3194.71875 1807.367188 3200.769531 1806.167969 3210.449219 1806.167969 C 3220.140625 1806.167969 3225.390625 1805.359375 3226.191406 1803.753906 C 3227 1802.148438 3232.25 1801.347656 3241.929688 1801.347656 C 3251.628906 1801.347656 3257.28125 1800.535156 3258.890625 1798.929688 C 3260.5 1797.328125 3276.648438 1795.714844 3307.328125 1794.109375 C 3338.011719 1792.503906 3354.148438 1790.492188 3355.769531 1788.078125 C 3357.378906 1785.671875 3367.070312 1783.660156 3384.828125 1782.046875 C 3402.589844 1780.445312 3413.488281 1778.433594 3417.519531 1776.027344 C 3421.558594 1773.609375 3437.300781 1771.601562 3464.75 1769.996094 C 3492.199219 1768.382812 3514 1765.976562 3530.140625 1762.757812 C 3546.289062 1759.546875 3555.570312 1756.730469 3557.988281 1754.320312 C 3560.410156 1751.90625 3566.070312 1750.707031 3574.949219 1750.707031 C 3583.828125 1750.707031 3589.070312 1749.5 3590.691406 1747.082031 C 3592.308594 1744.675781 3599.980469 1743.46875 3613.691406 1743.46875 C 3627.421875 1743.46875 3640.339844 1742.261719 3652.449219 1739.855469 C 3664.558594 1737.4375 3671.421875 1735.03125 3673.03125 1732.617188 C 3674.648438 1730.207031 3677.480469 1729 3681.511719 1729 C 3685.550781 1729 3688.78125 1727.792969 3691.199219 1725.386719 C 3693.621094 1722.972656 3708.960938 1719.355469 3737.210938 1714.535156 C 3765.46875 1709.710938 3780.410156 1706.089844 3782.019531 1703.679688 C 3783.628906 1701.265625 3789.691406 1700.066406 3800.179688 1700.066406 C 3810.679688 1700.066406 3817.140625 1698.859375 3819.558594 1696.445312 C 3821.980469 1694.035156 3829.648438 1692.027344 3842.570312 1690.414062 C 3855.480469 1688.808594 3869.609375 1685.589844 3884.949219 1680.769531 C 3900.28125 1675.945312 3915.230469 1669.921875 3929.75 1662.6875 C 3944.289062 1655.449219 3953.96875 1649.425781 3958.820312 1644.597656 C 3963.660156 1639.773438 3967.691406 1637.367188 3970.929688 1637.367188 C 3974.148438 1637.367188 3985.058594 1630.535156 4003.621094 1616.867188 C 4022.191406 1603.203125 4035.109375 1594.765625 4042.371094 1591.546875 C 4049.640625 1588.332031 4053.679688 1585.121094 4054.480469 1581.902344 C 4055.289062 1578.6875 4057.308594 1576.675781 4060.539062 1575.875 C 4063.761719 1575.070312 4068.199219 1571.457031 4073.859375 1565.019531 C 4079.5 1558.59375 4083.941406 1550.148438 4087.179688 1539.703125 C 4090.398438 1529.253906 4094.039062 1521.617188 4098.070312 1516.796875 C 4102.109375 1511.972656 4104.128906 1499.507812 4104.128906 1479.417969 C 4104.128906 1459.324219 4104.941406 1448.472656 4106.550781 1446.859375 C 4108.171875 1445.253906 4108.171875 1434.402344 4106.550781 1414.308594 C 4104.941406 1394.207031 4102.921875 1382.554688 4100.5 1379.34375 C 4098.070312 1376.125 4096.058594 1366.480469 4094.441406 1350.402344 C 4092.820312 1334.328125 4089.601562 1323.078125 4084.75 1316.644531 C 4079.910156 1310.214844 4075.070312 1307.800781 4070.21875 1309.414062 C 4065.378906 1311.019531 4060.941406 1310.214844 4056.898438 1307 C 4052.859375 1303.78125 4050.441406 1296.144531 4049.640625 1284.09375 C 4048.828125 1272.035156 4047.21875 1262.785156 4044.800781 1256.359375 C 4042.371094 1249.929688 4037.121094 1240.683594 4029.050781 1228.625 C 4020.980469 1216.570312 4016.941406 1208.125 4016.941406 1203.304688 C 4016.941406 1198.480469 4013.71875 1190.449219 4007.261719 1179.191406 C 4000.800781 1167.941406 3995.960938 1161.109375 3992.71875 1158.695312 C 3989.5 1156.285156 3987.46875 1153.070312 3986.671875 1149.046875 C 3985.859375 1145.027344 3976.980469 1134.984375 3960.03125 1118.90625 C 3943.070312 1102.832031 3931.371094 1093.585938 3924.910156 1091.179688 C 3918.449219 1088.765625 3914.410156 1086.347656 3912.800781 1083.941406 C 3911.191406 1081.527344 3905.941406 1079.117188 3897.058594 1076.703125 C 3888.179688 1074.296875 3882.519531 1071.882812 3880.101562 1069.472656 C 3877.679688 1067.058594 3871.628906 1065.859375 3861.941406 1065.859375 C 3852.25 1065.859375 3846.199219 1064.652344 3843.78125 1062.234375 C 3841.359375 1059.828125 3832.070312 1056.207031 3815.929688 1051.382812 C 3799.78125 1046.5625 3785.25 1044.152344 3772.339844 1044.152344 C 3759.410156 1044.152344 3750.941406 1042.945312 3746.898438 1040.539062 C 3742.871094 1038.125 3737.210938 1036.917969 3729.941406 1036.917969 C 3722.679688 1036.917969 3714.609375 1034.90625 3705.730469 1030.886719 C 3696.851562 1026.875 3689.589844 1024.863281 3683.929688 1024.863281 C 3678.28125 1024.863281 3675.050781 1024.054688 3674.238281 1022.449219 C 3673.441406 1020.84375 3662.140625 1019.230469 3640.339844 1017.625 C 3618.539062 1016.019531 3607.238281 1014.410156 3606.429688 1012.804688 C 3605.628906 1011.199219 3602 1010.390625 3595.539062 1010.390625 C 3589.070312 1010.390625 3582.609375 1008.386719 3576.160156 1004.367188 C 3569.699219 1000.347656 3562.03125 998.335938 3553.148438 998.335938 C 3544.269531 998.335938 3537.011719 997.128906 3531.351562 994.722656 C 3525.710938 992.304688 3510.769531 989.492188 3486.550781 986.277344 C 3462.328125 983.058594 3448.609375 980.246094 3445.378906 977.839844 C 3442.148438 975.421875 3436.089844 974.222656 3427.21875 974.222656 C 3418.339844 974.222656 3409.851562 972.214844 3401.78125 968.195312 C 3393.710938 964.171875 3378.769531 959.75 3356.980469 954.925781 C 3335.179688 950.105469 3323.480469 946.488281 3321.859375 944.082031 C 3320.238281 941.667969 3314.191406 940.457031 3303.699219 940.457031 C 3293.210938 940.457031 3287.140625 939.25 3285.53125 936.84375 C 3283.921875 934.429688 3278.269531 932.417969 3268.578125 930.8125 C 3258.890625 929.207031 3252.429688 926.792969 3249.199219 923.582031 C 3245.980469 920.367188 3241.128906 918.753906 3234.679688 918.753906 C 3228.21875 918.753906 3224.179688 917.554688 3222.558594 915.140625 C 3220.949219 912.730469 3216.109375 911.523438 3208.039062 911.523438 C 3199.960938 911.523438 3192.289062 909.109375 3185.019531 904.285156 C 3177.761719 899.464844 3168.878906 896.652344 3158.390625 895.847656 C 3147.890625 895.046875 3141.03125 893.035156 3137.800781 889.820312 C 3134.570312 886.601562 3127.308594 884.996094 3116 884.996094 C 3104.699219 884.996094 3097.429688 882.589844 3094.199219 877.765625 C 3090.980469 872.945312 3082.5 868.113281 3068.769531 863.292969 C 3055.050781 858.46875 3046.171875 849.621094 3042.140625 836.769531 C 3038.089844 823.910156 3030.828125 812.25 3020.328125 801.808594 C 3009.839844 791.351562 3003.378906 780.5 3000.960938 769.25 C 2998.539062 758 2995.308594 748.351562 2991.269531 740.308594 C 2987.230469 732.269531 2982.800781 727.050781 2977.949219 724.640625 C 2973.109375 722.21875 2965.441406 715.390625 2954.949219 704.140625 C 2944.449219 692.878906 2926.28125 683.640625 2900.449219 676.410156 C 2874.609375 669.179688 2857.660156 665.960938 2849.589844 666.761719 C 2841.519531 667.558594 2837.078125 668.769531 2836.269531 670.371094 C 2835.46875 671.988281 2826.988281 672.789062 2810.839844 672.789062 C 2794.699219 672.789062 2786.21875 671.988281 2785.410156 670.371094 C 2784.609375 668.769531 2781.378906 667.96875 2775.730469 667.96875 C 2770.070312 667.96875 2763.609375 666.359375 2756.351562 663.140625 C 2749.089844 659.929688 2741.410156 658.320312 2733.339844 658.320312 C 2725.269531 658.320312 2720.019531 657.121094 2717.601562 654.710938 C 2715.179688 652.289062 2707.511719 649.878906 2694.589844 647.46875 C 2681.679688 645.058594 2666.339844 636.210938 2648.570312 620.941406 C 2630.808594 605.671875 2620.320312 597.628906 2617.089844 596.828125 C 2613.859375 596.03125 2609.019531 592.011719 2602.558594 584.769531 C 2596.101562 577.539062 2589.238281 572.71875 2581.96875 570.308594 C 2574.710938 567.890625 2566.640625 563.46875 2557.75 557.039062 C 2548.878906 550.609375 2542.011719 546.988281 2537.171875 546.191406 C 2532.320312 545.390625 2525.460938 540.960938 2516.578125 532.929688 C 2507.699219 524.890625 2497.210938 519.660156 2485.089844 517.261719 C 2472.988281 514.839844 2464.109375 510.820312 2458.460938 505.191406 C 2452.808594 499.570312 2449.980469 494.75 2449.980469 490.730469 C 2449.980469 486.710938 2447.558594 479.070312 2442.710938 467.820312 C 2437.878906 456.570312 2432.628906 448.128906 2426.96875 442.5 C 2421.320312 436.871094 2412.441406 430.441406 2400.328125 423.210938 C 2388.230469 415.980469 2379.339844 412.359375 2373.691406 412.359375 C 2368.039062 412.359375 2359.96875 409.539062 2349.46875 403.921875 C 2338.980469 398.289062 2328.078125 395.480469 2316.78125 395.480469 C 2305.480469 395.480469 2293.769531 398.289062 2281.660156 403.921875 C 2269.550781 409.539062 2260.269531 412.359375 2253.808594 412.359375 C 2247.351562 412.359375 2238.46875 408.738281 2227.171875 401.5 C 2215.871094 394.269531 2202.140625 381.808594 2186 364.128906 C 2169.851562 346.441406 2157.738281 336 2149.660156 332.78125 C 2141.589844 329.558594 2133.121094 327.960938 2124.238281 327.960938 C 2115.359375 327.960938 2110.519531 327.148438 2109.710938 325.539062 C 2108.890625 323.941406 2099.621094 323.128906 2081.859375 323.128906 C 2064.089844 323.128906 2051.179688 320.71875 2043.109375 315.890625 C 2035.03125 311.070312 2029.378906 306.25 2026.148438 301.429688 C 2022.921875 296.609375 2020.089844 294.199219 2017.671875 294.199219 C 2015.25 294.199219 2013.230469 292.191406 2011.621094 288.171875 C 2010.011719 284.148438 2004.351562 280.53125 1994.660156 277.320312 C 1984.980469 274.101562 1978.121094 270.078125 1974.078125 265.261719 C 1970.039062 260.429688 1962.78125 254.808594 1952.28125 248.378906 C 1941.789062 241.941406 1932.910156 238.328125 1925.640625 237.53125 C 1918.378906 236.730469 1914.339844 235.519531 1913.539062 233.910156 C 1912.730469 232.300781 1903.039062 231.890625 1884.46875 232.710938 C 1865.898438 233.511719 1855 232.300781 1851.769531 229.078125 C 1848.550781 225.871094 1839.261719 221.859375 1823.929688 217.03125 C 1808.589844 212.210938 1800.109375 208.589844 1798.488281 206.179688 C 1796.878906 203.769531 1787.589844 202.558594 1770.640625 202.558594 C 1753.691406 202.558594 1744 200.148438 1741.578125 195.328125 C 1739.160156 190.5 1734.320312 185.28125 1727.050781 179.648438 C 1719.78125 174.03125 1714.539062 167.589844 1711.308594 160.359375 C 1708.070312 153.121094 1703.628906 149.109375 1697.980469 148.300781 C 1692.339844 147.5 1687.898438 145.089844 1684.660156 141.070312 C 1681.429688 137.050781 1675.789062 133.828125 1667.71875 131.429688 C 1659.640625 129.011719 1652.371094 122.578125 1645.910156 112.128906 C 1639.460938 101.679688 1634.609375 96.460938 1631.390625 96.460938 C 1628.148438 96.460938 1618.871094 89.621094 1603.53125 75.960938 C 1588.191406 62.300781 1576.890625 53.449219 1569.621094 49.429688 C 1562.359375 45.410156 1556.710938 43.410156 1552.671875 43.410156 C 1548.640625 43.410156 1540.960938 39.789062 1529.660156 32.558594 C 1518.359375 25.320312 1510.691406 21.699219 1506.648438 21.699219 C 1502.621094 21.699219 1494.949219 18.890625 1483.648438 13.261719 C 1472.351562 7.640625 1463.46875 4.820312 1457.011719 4.820312 C 1450.550781 4.820312 1446.910156 4.019531 1446.109375 2.410156 C 1445.300781 0.808594 1430.769531 0 1402.519531 0 C 1374.261719 0 1356.5 2.808594 1349.230469 8.441406 Z M 1431.558594 2.410156 C 1436.398438 2.410156 1441.25 2.410156 1446.089844 2.410156 C 1446.089844 3.621094 1446.089844 4.820312 1446.089844 6.03125 C 1446.089844 7.230469 1446.089844 8.441406 1446.089844 9.640625 C 1442.449219 9.640625 1438.820312 9.640625 1435.191406 9.640625 C 1431.558594 9.640625 1427.929688 9.640625 1424.300781 9.640625 C 1425.910156 10.449219 1427.519531 11.25 1429.128906 12.058594 C 1432.359375 13.660156 1439.628906 13.660156 1450.929688 12.058594 C 1456.578125 11.25 1462.238281 10.449219 1467.890625 9.640625 C 1466.679688 11.25 1465.460938 12.859375 1464.25 14.46875 C 1463.039062 16.078125 1461.828125 17.679688 1460.621094 19.289062 C 1465.058594 19.691406 1469.5 20.089844 1473.941406 20.5 C 1482.820312 21.300781 1490.089844 23.308594 1495.738281 26.53125 C 1501.390625 29.738281 1504.210938 32.960938 1504.210938 36.171875 C 1504.210938 39.390625 1501.789062 43.410156 1496.949219 48.230469 C 1492.101562 53.050781 1489.679688 56.671875 1489.679688 59.078125 C 1489.679688 61.488281 1487.660156 63.5 1483.628906 65.109375 C 1479.589844 66.710938 1476.769531 70.328125 1475.148438 75.960938 C 1473.539062 81.589844 1473.539062 85.609375 1475.148438 88.019531 C 1476.769531 90.429688 1484.441406 92.839844 1498.160156 95.25 C 1511.878906 97.660156 1521.160156 96.058594 1526.011719 90.429688 C 1530.859375 84.800781 1532.871094 76.359375 1532.058594 65.109375 C 1531.261719 53.859375 1532.058594 47.828125 1534.480469 47.019531 C 1536.910156 46.21875 1541.351562 47.019531 1547.808594 49.429688 C 1554.261719 51.851562 1561.128906 61.089844 1568.390625 77.160156 C 1575.660156 93.238281 1579.289062 107.308594 1579.289062 119.371094 C 1579.289062 131.429688 1576.871094 139.058594 1572.03125 142.269531 C 1567.179688 145.488281 1558.699219 145.890625 1546.601562 143.480469 C 1534.480469 141.070312 1517.539062 131.820312 1495.738281 115.75 C 1473.941406 99.671875 1459.410156 86.808594 1452.140625 77.160156 C 1444.878906 67.519531 1430.75 59.480469 1409.761719 53.050781 C 1388.769531 46.621094 1378.269531 41.800781 1378.269531 38.578125 C 1378.269531 35.371094 1379.488281 33.359375 1381.910156 32.558594 C 1384.328125 31.75 1387.558594 27.328125 1391.589844 19.289062 C 1395.628906 11.25 1400.878906 6.429688 1407.339844 4.820312 C 1413.800781 3.210938 1421.871094 2.410156 1431.558594 2.410156 Z M 1317.730469 55.460938 C 1318.539062 55.460938 1319.339844 55.460938 1320.148438 55.460938 C 1320.148438 56.671875 1320.148438 57.871094 1320.148438 59.078125 C 1320.148438 61.488281 1318.941406 63.101562 1316.519531 63.898438 C 1315.308594 64.308594 1314.101562 64.710938 1312.878906 65.109375 C 1313.289062 63.5 1313.691406 61.890625 1314.101562 60.28125 C 1314.898438 57.070312 1316.109375 55.460938 1317.730469 55.460938 Z M 1492.101562 72.339844 C 1495.339844 72.75 1498.558594 73.148438 1501.789062 73.550781 C 1508.25 74.351562 1512.691406 76.359375 1515.109375 79.578125 C 1516.320312 81.179688 1517.539062 82.789062 1518.738281 84.398438 C 1515.921875 84 1513.089844 83.601562 1510.269531 83.191406 C 1504.621094 82.390625 1500.179688 80.378906 1496.949219 77.160156 C 1495.339844 75.558594 1493.71875 73.949219 1492.101562 72.339844 Z M 1293.511719 101.28125 C 1294.320312 101.679688 1295.121094 102.089844 1295.929688 102.480469 C 1296.730469 102.890625 1297.550781 103.289062 1298.359375 103.691406 C 1297.550781 103.289062 1296.730469 102.890625 1295.929688 102.480469 C 1295.121094 102.089844 1294.320312 101.679688 1293.511719 101.28125 Z M 1288.660156 106.101562 C 1289.070312 107.710938 1289.480469 109.320312 1289.878906 110.929688 C 1290.679688 114.140625 1290.28125 116.148438 1288.660156 116.949219 C 1287.859375 117.359375 1287.050781 117.761719 1286.238281 118.160156 C 1286.648438 116.148438 1287.050781 114.140625 1287.460938 112.128906 C 1287.859375 110.121094 1288.261719 108.109375 1288.660156 106.101562 Z M 1406.128906 125.390625 C 1411.78125 125.390625 1415.808594 127 1418.230469 130.21875 C 1420.660156 133.441406 1425.5 135.839844 1432.769531 137.449219 C 1440.03125 139.058594 1445.28125 143.078125 1448.511719 149.511719 C 1451.738281 155.941406 1465.460938 165.179688 1489.679688 177.238281 C 1501.789062 183.269531 1513.910156 189.300781 1526.011719 195.328125 C 1514.300781 200.148438 1502.601562 204.96875 1490.890625 209.789062 C 1467.480469 219.441406 1435.191406 237.121094 1394.019531 262.851562 C 1352.839844 288.570312 1323.378906 308.261719 1305.621094 321.929688 C 1287.859375 335.589844 1274.941406 343.628906 1266.871094 346.039062 C 1262.839844 347.25 1258.789062 348.449219 1254.761719 349.660156 C 1254.351562 346.851562 1253.960938 344.03125 1253.550781 341.210938 C 1252.738281 335.589844 1260.410156 319.921875 1276.558594 294.199219 C 1292.699219 268.46875 1301.179688 253.601562 1301.980469 249.578125 C 1302.800781 245.558594 1314.101562 227.070312 1335.890625 194.121094 C 1357.691406 161.160156 1373.429688 141.46875 1383.121094 135.039062 C 1392.808594 128.609375 1400.480469 125.390625 1406.128906 125.390625 Z M 1274.140625 132.621094 C 1274.539062 133.828125 1274.941406 135.039062 1275.339844 136.25 C 1275.75 137.449219 1276.160156 138.660156 1276.558594 139.859375 C 1276.160156 138.660156 1275.75 137.449219 1275.339844 136.25 C 1274.941406 135.039062 1274.539062 133.828125 1274.140625 132.621094 Z M 1677.378906 143.480469 C 1692.71875 150.710938 1707.648438 162.769531 1722.179688 179.648438 C 1736.71875 196.53125 1752.859375 205.769531 1770.621094 207.390625 C 1788.378906 208.988281 1804.128906 212.609375 1817.851562 218.238281 C 1831.570312 223.859375 1842.070312 229.488281 1849.339844 235.109375 C 1852.96875 237.929688 1856.589844 240.738281 1860.230469 243.558594 C 1854.578125 245.960938 1848.929688 248.378906 1843.269531 250.789062 C 1831.96875 255.609375 1825.519531 259.230469 1823.898438 261.640625 C 1822.289062 264.050781 1819.058594 265.261719 1814.210938 265.261719 C 1809.378906 265.261719 1801.300781 260.839844 1790 252 C 1778.691406 243.148438 1760.128906 232.710938 1734.289062 220.640625 C 1708.460938 208.589844 1682.628906 200.148438 1656.800781 195.328125 C 1643.871094 192.910156 1630.960938 190.5 1618.039062 188.089844 C 1621.671875 180.859375 1625.308594 173.621094 1628.941406 166.390625 C 1636.210938 151.921875 1642.261719 142.679688 1647.109375 138.660156 C 1651.949219 134.640625 1662.039062 136.25 1677.378906 143.480469 Z M 1266.871094 144.691406 C 1267.269531 145.488281 1267.671875 146.289062 1268.078125 147.101562 C 1268.480469 147.898438 1268.890625 148.710938 1269.289062 149.511719 C 1268.890625 148.710938 1268.480469 147.898438 1268.078125 147.101562 C 1267.671875 146.289062 1267.269531 145.488281 1266.871094 144.691406 Z M 1259.601562 156.75 C 1260.011719 157.550781 1260.410156 158.351562 1260.820312 159.148438 C 1261.210938 159.960938 1261.621094 160.769531 1262.019531 161.570312 C 1261.621094 160.769531 1261.210938 159.960938 1260.820312 159.148438 C 1260.410156 158.351562 1260.011719 157.550781 1259.601562 156.75 Z M 1252.339844 163.980469 C 1253.140625 163.980469 1253.960938 163.980469 1254.761719 163.980469 C 1255.570312 163.980469 1256.378906 163.980469 1257.179688 163.980469 C 1256.769531 165.589844 1256.378906 167.191406 1255.96875 168.800781 C 1255.570312 170.410156 1255.160156 172.019531 1254.761719 173.621094 C 1254.351562 172.019531 1253.960938 170.410156 1253.550781 168.800781 C 1253.140625 167.191406 1252.738281 165.589844 1252.339844 163.980469 Z M 1245.070312 178.441406 C 1245.878906 178.441406 1246.691406 178.441406 1247.488281 178.441406 C 1248.300781 178.441406 1249.109375 178.441406 1249.910156 178.441406 C 1249.519531 179.25 1249.109375 180.058594 1248.710938 180.859375 C 1248.300781 181.660156 1247.890625 182.460938 1247.488281 183.269531 C 1247.089844 182.460938 1246.691406 181.660156 1246.28125 180.859375 C 1245.878906 180.058594 1245.46875 179.25 1245.070312 178.441406 Z M 1872.339844 233.910156 C 1875.160156 234.308594 1877.988281 234.710938 1880.820312 235.109375 C 1883.640625 235.519531 1886.46875 235.921875 1889.300781 236.320312 C 1886.46875 235.921875 1883.640625 235.519531 1880.820312 235.109375 C 1877.988281 234.710938 1875.160156 234.308594 1872.339844 233.910156 Z M 1828.75 267.671875 C 1830.359375 267.671875 1831.96875 267.671875 1833.589844 267.671875 C 1833.589844 268.46875 1833.589844 269.28125 1833.589844 270.078125 C 1833.589844 271.691406 1828.339844 274.898438 1817.851562 279.71875 C 1812.601562 282.140625 1807.351562 284.550781 1802.109375 286.960938 C 1805.738281 283.738281 1809.378906 280.53125 1813 277.320312 C 1820.269531 270.878906 1825.519531 267.671875 1828.75 267.671875 Z M 1487.261719 296.609375 C 1488.878906 298.210938 1488.070312 301.828125 1484.839844 307.460938 C 1481.609375 313.078125 1460.210938 336.800781 1420.660156 378.601562 C 1381.101562 420.390625 1358.898438 442.5 1354.058594 444.910156 C 1349.210938 447.320312 1335.078125 460.179688 1311.679688 483.488281 C 1288.261719 506.800781 1270.5 523.28125 1258.390625 532.929688 C 1246.28125 542.578125 1239.019531 547.398438 1236.589844 547.398438 C 1234.171875 547.398438 1222.871094 556.640625 1202.679688 575.121094 C 1182.511719 593.609375 1167.570312 606.480469 1157.890625 613.710938 C 1148.199219 620.941406 1142.140625 624.558594 1139.71875 624.558594 C 1137.300781 624.558594 1128.421875 631.390625 1113.078125 645.058594 C 1097.738281 658.71875 1087.25 666.761719 1081.601562 669.179688 C 1075.941406 671.578125 1062.621094 681.230469 1041.628906 698.109375 C 1020.640625 714.988281 1008.941406 723.429688 1006.519531 723.429688 C 1005.308594 723.429688 1004.089844 723.429688 1002.890625 723.429688 C 1002.890625 724.230469 1002.890625 725.03125 1002.890625 725.851562 C 1002.890625 727.449219 994.808594 733.078125 978.667969 742.71875 C 962.519531 752.371094 954.046875 758.390625 953.234375 760.808594 C 952.425781 763.21875 939.105469 771.660156 913.273438 786.128906 C 887.4375 800.601562 874.523438 808.640625 874.523438 810.238281 C 874.523438 811.851562 856.761719 821.101562 821.242188 837.96875 C 785.722656 854.859375 764.324219 864.5 757.066406 866.914062 C 749.796875 869.320312 739.296875 870.527344 725.582031 870.527344 C 711.855469 870.527344 690.457031 866.914062 661.394531 859.679688 C 632.332031 852.441406 610.539062 846.421875 596.003906 841.589844 C 581.476562 836.769531 573 833.148438 570.578125 830.738281 C 568.15625 828.328125 556.042969 824.710938 534.246094 819.890625 C 512.453125 815.070312 491.863281 808.230469 472.492188 799.390625 C 453.113281 790.550781 439.792969 785.730469 432.523438 784.921875 C 425.265625 784.121094 418.808594 781.710938 413.152344 777.691406 C 407.503906 773.671875 401.445312 771.261719 394.988281 770.460938 C 388.53125 769.648438 369.960938 762.421875 339.285156 748.75 C 308.609375 735.089844 293.671875 726.238281 294.480469 722.21875 C 295.289062 718.199219 299.730469 713.378906 307.800781 707.761719 C 315.878906 702.128906 338.878906 691.679688 376.824219 676.410156 C 414.765625 661.140625 438.988281 653.5 449.484375 653.5 C 459.976562 653.5 469.261719 656.710938 477.332031 663.140625 C 485.40625 669.570312 499.132812 678.019531 518.503906 688.460938 C 537.878906 698.910156 549.179688 704.140625 552.414062 704.140625 C 555.636719 704.140625 560.484375 706.550781 566.941406 711.371094 C 573.40625 716.191406 590.355469 722.21875 617.804688 729.460938 C 645.246094 736.691406 675.121094 741.121094 707.414062 742.71875 C 739.703125 744.328125 776.4375 740.308594 817.605469 730.671875 C 858.78125 721.019531 891.878906 710.570312 916.90625 699.320312 C 941.933594 688.058594 962.519531 677.609375 978.667969 667.96875 C 994.808594 658.320312 1002.890625 652.699219 1002.890625 651.089844 C 1002.890625 649.480469 1005.710938 647.46875 1011.359375 645.058594 C 1017.011719 642.648438 1027.511719 635.410156 1042.839844 623.359375 C 1058.179688 611.300781 1084.019531 587.988281 1120.339844 553.421875 C 1156.671875 518.859375 1201.878906 483.488281 1255.96875 447.320312 C 1310.058594 411.148438 1351.230469 382.210938 1379.488281 360.511719 C 1407.738281 338.808594 1432.359375 322.328125 1453.359375 311.070312 C 1474.339844 299.820312 1485.640625 295 1487.261719 296.609375 Z M 2034.609375 313.488281 C 2036.21875 315.089844 2037.828125 316.699219 2039.449219 318.308594 C 2041.070312 319.921875 2042.679688 321.519531 2044.300781 323.128906 C 2042.679688 323.128906 2041.070312 323.128906 2039.449219 323.128906 C 2037.828125 323.128906 2036.21875 323.128906 2034.609375 323.128906 C 2034.609375 321.519531 2034.609375 319.921875 2034.609375 318.308594 C 2034.609375 316.699219 2034.609375 315.089844 2034.609375 313.488281 Z M 1952.269531 318.308594 C 1953.070312 318.308594 1953.878906 318.308594 1954.691406 318.308594 C 1954.28125 325.140625 1953.878906 331.980469 1953.46875 338.808594 C 1953.070312 345.640625 1952.671875 352.46875 1952.269531 359.308594 C 1949.441406 357.691406 1946.609375 356.089844 1943.789062 354.480469 C 1938.140625 351.269531 1935.308594 348.050781 1935.308594 344.839844 C 1935.308594 341.621094 1937.730469 336.390625 1942.570312 329.160156 C 1947.421875 321.929688 1950.640625 318.308594 1952.269531 318.308594 Z M 2050.351562 326.75 C 2051.558594 327.148438 2052.769531 327.550781 2053.980469 327.960938 C 2051.960938 329.960938 2049.949219 331.980469 2047.929688 333.980469 C 2045.910156 336 2043.890625 338.011719 2041.878906 340.019531 C 2041.878906 338.011719 2041.878906 336 2041.878906 333.980469 C 2041.878906 329.960938 2042.679688 327.550781 2044.300781 326.75 C 2045.910156 325.941406 2047.929688 325.941406 2050.351562 326.75 Z M 2044.300781 344.839844 C 2045.5 345.230469 2046.71875 345.640625 2047.929688 346.039062 C 2050.351562 346.851562 2051.558594 348.851562 2051.558594 352.070312 C 2051.558594 353.671875 2051.558594 355.28125 2051.558594 356.890625 C 2050.351562 356.890625 2049.140625 356.890625 2047.929688 356.890625 C 2046.71875 356.890625 2045.5 356.890625 2044.300781 356.890625 C 2044.300781 354.878906 2044.300781 352.871094 2044.300781 350.859375 C 2044.300781 348.851562 2044.300781 346.851562 2044.300781 344.839844 Z M 1618.039062 364.128906 C 1620.058594 364.53125 1622.078125 364.929688 1624.089844 365.339844 C 1628.128906 366.140625 1630.160156 368.550781 1630.160156 372.570312 C 1630.160156 374.578125 1630.160156 376.589844 1630.160156 378.601562 C 1628.128906 377.789062 1626.109375 376.988281 1624.089844 376.179688 C 1620.058594 374.578125 1618.039062 372.171875 1618.039062 368.949219 C 1618.039062 367.339844 1618.039062 365.730469 1618.039062 364.128906 Z M 2218.671875 402.710938 C 2220.289062 402.710938 2221.898438 402.710938 2223.519531 402.710938 C 2225.128906 402.710938 2226.738281 402.710938 2228.359375 402.710938 C 2227.550781 404.320312 2226.738281 405.929688 2225.929688 407.53125 C 2224.320312 410.75 2224.730469 413.558594 2227.148438 415.980469 C 2229.570312 418.378906 2236.03125 419.589844 2246.519531 419.589844 C 2257.019531 419.589844 2265.898438 418.378906 2273.160156 415.980469 C 2280.429688 413.558594 2286.480469 413.558594 2291.320312 415.980469 C 2293.75 417.179688 2296.171875 418.378906 2298.589844 419.589844 C 2291.320312 424.410156 2284.070312 429.230469 2276.800781 434.058594 C 2262.261719 443.699219 2252.980469 450.941406 2248.941406 455.769531 C 2244.910156 460.589844 2241.28125 462.988281 2238.050781 462.988281 C 2234.820312 462.988281 2230.78125 456.160156 2225.929688 442.5 C 2221.089844 428.828125 2218.671875 418.789062 2218.671875 412.359375 C 2218.671875 409.140625 2218.671875 405.929688 2218.671875 402.710938 Z M 2119.371094 422 C 2120.980469 423.609375 2122.609375 425.210938 2124.21875 426.820312 C 2127.441406 430.039062 2129.058594 433.261719 2129.058594 436.46875 C 2129.058594 438.078125 2129.058594 439.679688 2129.058594 441.300781 C 2125.429688 440.089844 2121.800781 438.878906 2118.160156 437.671875 C 2114.53125 436.46875 2110.898438 435.269531 2107.261719 434.058594 C 2109.289062 432.050781 2111.300781 430.039062 2113.320312 428.03125 C 2115.339844 426.019531 2117.359375 424.011719 2119.371094 422 Z M 215.769531 443.699219 C 216.578125 443.699219 217.386719 443.699219 218.191406 443.699219 C 219 443.699219 219.800781 443.699219 220.613281 443.699219 C 220.207031 444.511719 219.800781 445.308594 219.40625 446.121094 C 219 446.921875 218.59375 447.71875 218.191406 448.53125 C 217.785156 447.71875 217.386719 446.921875 216.984375 446.121094 C 216.578125 445.308594 216.171875 444.511719 215.769531 443.699219 Z M 167.332031 508.808594 C 168.144531 509.210938 168.945312 509.609375 169.753906 510.019531 C 170.558594 510.421875 171.367188 510.820312 172.175781 511.230469 C 171.367188 510.820312 170.558594 510.421875 169.753906 510.019531 C 168.945312 509.609375 168.144531 509.210938 167.332031 508.808594 Z M 2351.871094 513.628906 C 2353.089844 514.441406 2354.300781 515.25 2355.511719 516.050781 C 2356.71875 516.851562 2357.929688 517.648438 2359.140625 518.460938 C 2357.929688 518.460938 2356.71875 518.460938 2355.511719 518.460938 C 2354.300781 518.460938 2353.089844 518.460938 2351.871094 518.460938 C 2351.871094 517.648438 2351.871094 516.851562 2351.871094 516.050781 C 2351.871094 515.25 2351.871094 514.441406 2351.871094 513.628906 Z M 160.066406 516.050781 C 161.28125 516.441406 162.488281 516.851562 163.703125 517.261719 C 164.910156 517.648438 166.117188 518.058594 167.332031 518.460938 C 166.117188 518.859375 164.910156 519.269531 163.703125 519.660156 C 162.488281 520.070312 161.28125 520.460938 160.066406 520.871094 C 160.066406 520.070312 160.066406 519.269531 160.066406 518.460938 C 160.066406 517.648438 160.066406 516.851562 160.066406 516.050781 Z M 2463.28125 520.871094 C 2468.929688 522.878906 2474.578125 524.890625 2480.230469 526.898438 C 2491.539062 530.921875 2500.820312 539.359375 2508.078125 552.21875 C 2515.351562 565.078125 2513.328125 575.53125 2502.03125 583.570312 C 2490.730469 591.609375 2482.660156 594.820312 2477.808594 593.210938 C 2472.96875 591.609375 2471.359375 587.191406 2472.96875 579.949219 C 2474.578125 572.71875 2473.371094 563.871094 2469.339844 553.421875 C 2465.300781 542.96875 2463.28125 534.929688 2463.28125 529.308594 C 2463.28125 526.5 2463.28125 523.679688 2463.28125 520.871094 Z M 2673.980469 677.609375 C 2674.789062 678.019531 2675.601562 678.421875 2676.410156 678.820312 C 2677.21875 679.21875 2678.019531 679.621094 2678.828125 680.03125 C 2678.019531 679.621094 2677.21875 679.21875 2676.410156 678.820312 C 2675.601562 678.421875 2674.789062 678.019531 2673.980469 677.609375 Z M 195.179688 846.421875 C 194.78125 847.21875 194.378906 848.019531 193.972656 848.820312 C 196.800781 848.820312 199.621094 848.820312 202.449219 848.820312 C 205.273438 848.820312 208.101562 848.820312 210.921875 848.820312 C 210.921875 848.019531 210.921875 847.21875 210.921875 846.421875 C 210.921875 845.609375 210.921875 844.808594 210.921875 844 C 208.507812 844 206.085938 844 203.664062 844 C 198.816406 844 195.988281 844.808594 195.179688 846.421875 Z M 218.191406 853.640625 C 219 854.449219 219.800781 855.261719 220.613281 856.058594 C 219.800781 855.261719 219 854.449219 218.191406 853.640625 C 217.386719 852.839844 216.578125 852.039062 215.769531 851.238281 C 216.578125 852.039062 217.386719 852.839844 218.191406 853.640625 Z M 3071.179688 868.113281 C 3071.980469 868.921875 3072.789062 869.726562 3073.601562 870.527344 C 3072.789062 871.332031 3071.980469 872.132812 3071.179688 872.945312 C 3070.359375 873.746094 3069.558594 874.546875 3068.75 875.351562 C 3071.578125 875.757812 3074.410156 876.152344 3077.230469 876.558594 C 3082.878906 877.359375 3087.730469 879.371094 3091.761719 882.589844 C 3095.800781 885.796875 3103.070312 887.808594 3113.558594 888.609375 C 3124.050781 889.421875 3130.910156 891.429688 3134.140625 894.640625 C 3137.371094 897.859375 3144.640625 900.265625 3155.941406 901.878906 C 3167.238281 903.484375 3178.140625 906.703125 3188.640625 911.523438 C 3199.128906 916.347656 3210.839844 919.960938 3223.75 922.375 C 3236.671875 924.785156 3245.140625 927.597656 3249.179688 930.8125 C 3253.21875 934.03125 3268.160156 938.449219 3293.980469 944.082031 C 3319.820312 949.707031 3334.351562 953.726562 3337.578125 956.132812 C 3340.820312 958.546875 3350.5 961.359375 3366.640625 964.570312 C 3382.789062 967.789062 3395.300781 971.402344 3404.179688 975.421875 C 3413.058594 979.445312 3421.140625 981.453125 3428.398438 981.453125 C 3435.671875 981.453125 3441.320312 982.660156 3445.359375 985.070312 C 3449.390625 987.484375 3454.238281 988.285156 3459.890625 987.484375 C 3465.539062 986.679688 3468.769531 987.484375 3469.570312 989.890625 C 3470.390625 992.304688 3475.230469 993.515625 3484.109375 993.515625 C 3488.550781 993.515625 3492.988281 993.515625 3497.429688 993.515625 C 3497.429688 994.722656 3497.429688 995.921875 3497.429688 997.128906 C 3497.429688 999.542969 3502.269531 1001.148438 3511.960938 1001.953125 C 3521.648438 1002.753906 3528.910156 1004.367188 3533.75 1006.773438 C 3538.601562 1009.1875 3543.039062 1009.585938 3547.070312 1007.980469 C 3549.101562 1007.179688 3551.109375 1006.375 3553.128906 1005.566406 C 3550.710938 1004.765625 3548.289062 1003.960938 3545.859375 1003.160156 C 3543.441406 1002.355469 3541.019531 1001.554688 3538.601562 1000.742188 C 3542.628906 1000.742188 3546.679688 1000.742188 3550.710938 1000.742188 C 3558.78125 1000.742188 3563.21875 1001.554688 3564.03125 1003.160156 C 3564.828125 1004.765625 3568.070312 1005.566406 3573.71875 1005.566406 C 3576.539062 1005.566406 3579.371094 1005.566406 3582.191406 1005.566406 C 3582.191406 1006.773438 3582.191406 1007.980469 3582.191406 1009.1875 C 3582.191406 1010.390625 3582.191406 1011.597656 3582.191406 1012.804688 C 3579.769531 1012.804688 3577.351562 1012.804688 3574.929688 1012.804688 C 3572.5 1012.804688 3570.078125 1012.804688 3567.660156 1012.804688 C 3568.878906 1013.605469 3570.078125 1014.410156 3571.300781 1015.210938 C 3573.71875 1016.824219 3579.371094 1016.824219 3588.25 1015.210938 C 3597.128906 1013.605469 3601.96875 1014.410156 3602.78125 1017.625 C 3603.589844 1020.84375 3607.621094 1022.449219 3614.890625 1022.449219 C 3622.160156 1022.449219 3627.410156 1023.65625 3630.628906 1026.0625 C 3633.859375 1028.480469 3639.511719 1030.082031 3647.589844 1030.886719 C 3655.660156 1031.695312 3662.109375 1031.292969 3666.960938 1029.6875 C 3669.378906 1028.875 3671.808594 1028.074219 3674.230469 1027.269531 C 3674.628906 1028.875 3675.03125 1030.488281 3675.429688 1032.09375 C 3676.25 1035.3125 3683.109375 1036.519531 3696.019531 1035.707031 C 3702.480469 1035.3125 3708.941406 1034.90625 3715.390625 1034.507812 C 3715.390625 1035.707031 3715.390625 1036.917969 3715.390625 1038.125 C 3715.390625 1040.539062 3713.78125 1042.144531 3710.550781 1042.945312 C 3708.941406 1043.351562 3707.320312 1043.75 3705.710938 1044.152344 C 3712.171875 1043.75 3718.628906 1043.351562 3725.089844 1042.945312 C 3731.539062 1042.542969 3738 1042.144531 3744.460938 1041.738281 C 3744.050781 1043.351562 3743.660156 1044.957031 3743.25 1046.5625 C 3742.839844 1048.171875 3742.441406 1049.777344 3742.03125 1051.382812 C 3750.519531 1050.582031 3758.988281 1049.777344 3767.46875 1048.976562 C 3775.941406 1048.171875 3784.421875 1047.363281 3792.898438 1046.5625 C 3792.898438 1048.171875 3792.898438 1049.777344 3792.898438 1051.382812 C 3792.898438 1054.601562 3790.480469 1056.609375 3785.628906 1057.414062 C 3783.210938 1057.820312 3780.789062 1058.214844 3778.359375 1058.621094 C 3782.808594 1058.621094 3787.25 1058.621094 3791.679688 1058.621094 C 3800.570312 1058.621094 3805.820312 1059.828125 3807.429688 1062.234375 C 3809.039062 1064.652344 3813.890625 1065.859375 3821.960938 1065.859375 C 3830.03125 1065.859375 3836.890625 1067.058594 3842.539062 1069.472656 C 3848.199219 1071.882812 3855.46875 1072.285156 3864.339844 1070.679688 C 3868.78125 1069.871094 3873.230469 1069.070312 3877.660156 1068.265625 C 3877.660156 1071.484375 3877.660156 1074.695312 3877.660156 1077.910156 C 3877.660156 1084.347656 3874.429688 1089.972656 3867.980469 1094.792969 C 3861.519531 1099.617188 3842.140625 1106.449219 3809.851562 1115.292969 C 3777.558594 1124.132812 3742.03125 1130.164062 3703.289062 1133.375 C 3664.539062 1136.589844 3637.898438 1139.808594 3623.359375 1143.019531 C 3608.839844 1146.234375 3586.230469 1148.652344 3555.558594 1150.257812 C 3524.871094 1151.859375 3507.921875 1153.472656 3504.691406 1155.078125 C 3501.46875 1156.683594 3475.628906 1158.695312 3427.191406 1161.109375 C 3378.761719 1163.515625 3339.191406 1167.140625 3308.519531 1171.960938 C 3277.839844 1176.785156 3251.210938 1181.605469 3228.601562 1186.429688 C 3206 1191.25 3184.601562 1197.28125 3164.410156 1204.511719 C 3144.230469 1211.75 3115.171875 1224.609375 3077.230469 1243.097656 C 3039.289062 1261.585938 3011.03125 1271.628906 2992.460938 1273.242188 C 2973.890625 1274.847656 2960.980469 1274.441406 2953.710938 1272.035156 C 2946.449219 1269.617188 2940.800781 1266.410156 2936.761719 1262.390625 C 2932.730469 1258.367188 2930.710938 1255.152344 2930.710938 1252.742188 C 2930.710938 1250.328125 2927.878906 1246.714844 2922.230469 1241.890625 C 2916.578125 1237.070312 2912.949219 1231.445312 2911.328125 1225.007812 C 2909.71875 1218.582031 2912.140625 1204.917969 2918.589844 1184.015625 C 2925.050781 1163.117188 2933.128906 1144.226562 2942.808594 1127.34375 C 2952.5 1110.46875 2960.980469 1092.378906 2968.25 1073.089844 C 2975.511719 1053.796875 2980.75 1041.738281 2983.988281 1036.917969 C 2987.210938 1032.09375 2991.25 1028.480469 2996.101562 1026.0625 C 3000.941406 1023.65625 3005.378906 1016.824219 3009.421875 1005.566406 C 3013.460938 994.316406 3018.300781 985.472656 3023.949219 979.046875 C 3029.601562 972.609375 3034.039062 961.359375 3037.269531 945.28125 C 3040.5 929.207031 3043.320312 919.5625 3045.738281 916.347656 C 3048.160156 913.128906 3049.378906 904.691406 3049.378906 891.027344 C 3049.378906 877.359375 3052.609375 869.726562 3059.058594 868.113281 C 3065.53125 866.507812 3069.558594 866.507812 3071.179688 868.113281 Z M 3153.519531 977.839844 C 3153.519531 979.847656 3153.519531 981.859375 3153.519531 983.867188 C 3155.941406 983.464844 3158.359375 983.058594 3160.789062 982.660156 C 3163.210938 982.257812 3165.628906 981.859375 3168.050781 981.453125 C 3167.238281 979.847656 3166.429688 978.234375 3165.628906 976.632812 C 3164.019531 973.414062 3161.589844 971.808594 3158.359375 971.808594 C 3156.75 971.808594 3155.128906 971.808594 3153.519531 971.808594 C 3153.519531 973.820312 3153.519531 975.828125 3153.519531 977.839844 Z M 3266.140625 983.867188 C 3265.730469 985.472656 3265.328125 987.078125 3264.921875 988.691406 C 3266.949219 988.691406 3268.96875 988.691406 3270.980469 988.691406 C 3273 988.691406 3275.019531 988.691406 3277.03125 988.691406 C 3275.421875 987.078125 3273.800781 985.472656 3272.191406 983.867188 C 3270.578125 982.257812 3268.96875 980.652344 3267.339844 979.046875 C 3266.949219 980.652344 3266.539062 982.257812 3266.140625 983.867188 Z M 3123.25 1026.0625 C 3122.839844 1028.074219 3122.441406 1030.082031 3122.03125 1032.09375 C 3125.269531 1032.09375 3128.488281 1032.09375 3131.71875 1032.09375 C 3134.949219 1032.09375 3138.179688 1032.09375 3141.410156 1032.09375 C 3141.011719 1030.488281 3140.601562 1028.875 3140.199219 1027.269531 C 3139.390625 1024.054688 3136.570312 1022.042969 3131.71875 1021.242188 C 3126.878906 1020.4375 3124.050781 1022.042969 3123.25 1026.0625 Z M 3688.75 1027.269531 C 3689.570312 1028.074219 3690.371094 1028.875 3691.179688 1029.6875 C 3691.988281 1030.488281 3692.789062 1031.292969 3693.601562 1032.09375 C 3691.988281 1032.09375 3690.371094 1032.09375 3688.75 1032.09375 C 3687.140625 1032.09375 3685.53125 1032.09375 3683.910156 1032.09375 C 3684.71875 1031.292969 3685.53125 1030.488281 3686.328125 1029.6875 C 3687.140625 1028.875 3687.949219 1028.074219 3688.75 1027.269531 Z M 3239.5 1034.507812 C 3238.691406 1037.71875 3239.5 1040.132812 3241.921875 1041.738281 C 3244.339844 1043.351562 3247.570312 1042.945312 3251.601562 1040.539062 C 3253.621094 1039.332031 3255.640625 1038.125 3257.660156 1036.917969 C 3256.851562 1035.707031 3256.039062 1034.507812 3255.238281 1033.300781 C 3253.621094 1030.886719 3250.800781 1029.6875 3246.769531 1029.6875 C 3242.71875 1029.6875 3240.300781 1031.292969 3239.5 1034.507812 Z M 3358.171875 1044.152344 C 3358.96875 1047.363281 3361.390625 1048.570312 3365.441406 1047.769531 C 3367.460938 1047.363281 3369.46875 1046.964844 3371.488281 1046.5625 C 3371.089844 1045.359375 3370.679688 1044.152344 3370.269531 1042.945312 C 3369.46875 1040.539062 3367.050781 1039.332031 3363.019531 1039.332031 C 3361 1039.332031 3358.96875 1039.332031 3356.960938 1039.332031 C 3357.359375 1040.9375 3357.769531 1042.542969 3358.171875 1044.152344 Z M 3572.5 1050.183594 C 3573.320312 1050.582031 3574.121094 1050.984375 3574.929688 1051.382812 C 3574.121094 1050.984375 3573.320312 1050.582031 3572.5 1050.183594 C 3571.691406 1049.777344 3570.890625 1049.375 3570.078125 1048.976562 C 3570.890625 1049.375 3571.691406 1049.777344 3572.5 1050.183594 Z M 3473.210938 1055.007812 C 3472.398438 1056.207031 3471.589844 1057.414062 3470.789062 1058.621094 C 3472.808594 1059.027344 3474.820312 1059.421875 3476.839844 1059.828125 C 3480.878906 1060.632812 3483.300781 1060.226562 3484.109375 1058.621094 C 3484.511719 1057.820312 3484.910156 1057.015625 3485.320312 1056.207031 C 3483.710938 1055.402344 3482.089844 1054.601562 3480.46875 1053.796875 C 3477.25 1052.195312 3474.820312 1052.589844 3473.210938 1055.007812 Z M 3889.769531 1075.503906 C 3890.179688 1076.304688 3890.578125 1077.109375 3890.980469 1077.910156 C 3891.390625 1078.714844 3891.789062 1079.515625 3892.191406 1080.328125 C 3891.390625 1080.328125 3890.578125 1080.328125 3889.769531 1080.328125 C 3888.96875 1080.328125 3888.160156 1080.328125 3887.351562 1080.328125 C 3887.75 1079.515625 3888.160156 1078.714844 3888.558594 1077.910156 C 3888.96875 1077.109375 3889.371094 1076.304688 3889.769531 1075.503906 Z M 3224.960938 1091.179688 C 3224.160156 1095.191406 3226.179688 1098.011719 3231.019531 1099.617188 C 3235.859375 1101.222656 3239.089844 1100.015625 3240.710938 1096 C 3241.519531 1093.992188 3242.320312 1091.980469 3243.128906 1089.972656 C 3240.300781 1089.167969 3237.480469 1088.359375 3234.648438 1087.554688 C 3231.820312 1086.753906 3229 1085.953125 3226.179688 1085.148438 C 3225.769531 1087.160156 3225.371094 1089.167969 3224.960938 1091.179688 Z M 3083.289062 1093.585938 C 3082.480469 1095.597656 3081.671875 1097.605469 3080.859375 1099.617188 C 3083.679688 1100.417969 3086.511719 1101.222656 3089.339844 1102.023438 C 3092.171875 1102.832031 3094.988281 1103.636719 3097.820312 1104.4375 C 3097.820312 1102.023438 3097.820312 1099.617188 3097.820312 1097.203125 C 3097.820312 1092.378906 3095.800781 1089.566406 3091.761719 1088.765625 C 3087.730469 1087.960938 3084.898438 1089.566406 3083.289062 1093.585938 Z M 3388.441406 1093.585938 C 3386.828125 1097.605469 3387.230469 1100.417969 3389.660156 1102.023438 C 3392.078125 1103.636719 3394.898438 1104.035156 3398.128906 1103.230469 C 3401.359375 1102.429688 3402.980469 1100.417969 3402.980469 1097.203125 C 3402.980469 1093.992188 3400.960938 1091.578125 3396.910156 1089.972656 C 3394.898438 1089.167969 3392.878906 1088.359375 3390.859375 1087.554688 C 3390.058594 1089.566406 3389.25 1091.578125 3388.441406 1093.585938 Z M 3520.429688 1099.617188 C 3521.238281 1102.832031 3524.070312 1104.035156 3528.910156 1103.230469 C 3531.328125 1102.832031 3533.75 1102.429688 3536.179688 1102.023438 C 3535.769531 1100.824219 3535.371094 1099.617188 3534.96875 1098.410156 C 3534.160156 1096 3531.328125 1094.792969 3526.488281 1094.792969 C 3524.070312 1094.792969 3521.648438 1094.792969 3519.230469 1094.792969 C 3519.628906 1096.398438 3520.03125 1098.011719 3520.429688 1099.617188 Z M 3645.160156 1099.617188 C 3645.160156 1100.417969 3645.160156 1101.222656 3645.160156 1102.023438 C 3646.78125 1102.023438 3648.390625 1102.023438 3650 1102.023438 C 3651.621094 1102.023438 3653.230469 1102.023438 3654.851562 1102.023438 C 3653.230469 1101.222656 3651.621094 1100.417969 3650 1099.617188 C 3648.390625 1098.8125 3646.78125 1098.011719 3645.160156 1097.203125 C 3645.160156 1098.011719 3645.160156 1098.8125 3645.160156 1099.617188 Z M 1085.230469 1287.707031 C 1086.039062 1287.707031 1086.839844 1287.707031 1087.648438 1287.707031 C 1087.648438 1289.3125 1087.648438 1290.925781 1087.648438 1292.53125 C 1087.648438 1295.75 1086.039062 1297.75 1082.808594 1298.5625 C 1079.570312 1299.363281 1077.558594 1298.957031 1076.75 1297.355469 C 1075.941406 1295.75 1076.75 1293.738281 1079.179688 1291.324219 C 1081.601562 1288.917969 1083.609375 1287.707031 1085.230469 1287.707031 Z M 1070.691406 1304.582031 C 1071.101562 1305.792969 1071.5 1307 1071.910156 1308.207031 C 1072.308594 1309.414062 1072.71875 1310.613281 1073.109375 1311.820312 C 1072.71875 1310.613281 1072.308594 1309.414062 1071.910156 1308.207031 C 1071.5 1307 1071.101562 1305.792969 1070.691406 1304.582031 Z M 65.609375 1440.835938 C 63.996094 1441.640625 19.183594 1437.046875 19.988281 1442.671875 C 20.796875 1448.296875 73.28125 1458.917969 88.621094 1458.917969 C 103.957031 1458.917969 114.050781 1460.125 118.898438 1462.535156 C 123.734375 1464.949219 133.425781 1466.554688 147.960938 1467.355469 C 162.488281 1468.167969 170.160156 1469.367188 170.960938 1470.980469 C 171.773438 1472.582031 185.09375 1473.386719 210.921875 1473.386719 C 223.84375 1473.386719 231.914062 1470.175781 223.035156 1468.5625 C 205.273438 1465.347656 193.972656 1462.136719 189.128906 1458.917969 C 184.28125 1455.703125 176.210938 1454.898438 164.910156 1456.511719 C 153.609375 1458.117188 140.289062 1458.117188 124.949219 1456.511719 C 109.613281 1454.898438 96.292969 1451.679688 84.988281 1446.859375 C 73.6875 1442.035156 67.230469 1440.027344 65.609375 1440.835938 Z M 302.957031 1472.179688 C 299.730469 1474.59375 292.460938 1475.800781 281.160156 1475.800781 C 275.511719 1475.800781 269.859375 1475.800781 264.210938 1475.800781 C 270.667969 1477.40625 277.125 1479.011719 283.582031 1480.625 C 296.496094 1483.832031 310.222656 1485.84375 324.757812 1486.652344 C 339.285156 1487.457031 348.164062 1486.652344 351.398438 1484.238281 C 354.621094 1481.832031 359.0625 1480.625 364.71875 1480.625 C 367.539062 1480.625 370.363281 1480.625 373.191406 1480.625 C 362.296875 1478.613281 351.398438 1476.605469 340.5 1474.59375 C 318.699219 1470.574219 306.1875 1469.769531 302.957031 1472.179688 Z M 470.070312 1478.207031 C 461.992188 1481.425781 445.851562 1482.632812 421.628906 1481.832031 C 397.410156 1481.019531 384.898438 1481.425781 384.089844 1483.03125 C 383.683594 1483.832031 383.28125 1484.644531 382.882812 1485.445312 C 392.167969 1485.445312 401.445312 1485.445312 410.730469 1485.445312 C 429.300781 1485.445312 444.636719 1487.050781 456.75 1490.269531 C 468.855469 1493.484375 493.476562 1495.089844 530.617188 1495.089844 C 567.75 1495.089844 587.527344 1495.894531 589.949219 1497.5 C 592.371094 1499.109375 602.46875 1500.714844 620.226562 1502.328125 C 637.988281 1503.933594 655.34375 1504.332031 672.292969 1503.527344 C 680.773438 1503.132812 689.25 1502.726562 697.726562 1502.328125 C 697.320312 1501.519531 696.914062 1500.714844 696.519531 1499.914062 C 695.707031 1498.308594 688.035156 1495.496094 673.507812 1491.476562 C 658.972656 1487.457031 648.480469 1486.25 642.023438 1487.855469 C 635.566406 1489.464844 619.417969 1490.269531 593.585938 1490.269531 C 567.75 1490.269531 546.757812 1489.0625 530.617188 1486.652344 C 514.46875 1484.238281 502.359375 1481.425781 494.289062 1478.207031 C 486.210938 1475 478.140625 1475 470.070312 1478.207031 Z M 778.859375 1499.914062 C 765.136719 1503.132812 753.023438 1503.933594 742.53125 1502.328125 C 732.039062 1500.714844 725.175781 1501.121094 721.941406 1503.527344 C 720.332031 1504.734375 718.71875 1505.945312 717.097656 1507.152344 C 747.78125 1508.351562 778.457031 1509.558594 809.128906 1510.765625 C 839.8125 1511.972656 870.488281 1513.171875 901.164062 1514.382812 C 893.894531 1513.984375 886.636719 1513.578125 879.367188 1513.171875 C 864.832031 1512.371094 856.359375 1510.765625 853.933594 1508.351562 C 851.511719 1505.945312 841.832031 1503.132812 824.871094 1499.914062 C 807.921875 1496.695312 792.585938 1496.695312 778.859375 1499.914062 Z M 933.863281 1509.558594 C 923.363281 1511.164062 917.308594 1513.578125 915.699219 1516.796875 C 914.886719 1518.402344 914.078125 1520.007812 913.273438 1521.617188 C 918.921875 1522.421875 924.578125 1523.222656 930.226562 1524.027344 C 941.527344 1525.640625 952.832031 1526.441406 964.132812 1526.441406 C 975.433594 1526.441406 982.296875 1525.640625 984.71875 1524.027344 C 985.925781 1523.222656 987.144531 1522.421875 988.351562 1521.617188 C 985.125 1519.609375 981.894531 1517.597656 978.667969 1515.589844 C 972.203125 1511.570312 965.746094 1509.160156 959.289062 1508.351562 C 952.832031 1507.546875 944.355469 1507.953125 933.863281 1509.558594 Z M 1092.5 1519.203125 C 1086.039062 1522.421875 1079.570312 1525.640625 1073.109375 1528.847656 C 1094.511719 1528.847656 1115.898438 1528.847656 1137.300781 1528.847656 C 1180.089844 1528.847656 1206.730469 1529.253906 1217.21875 1530.054688 C 1227.710938 1530.859375 1233.371094 1532.066406 1234.171875 1533.671875 C 1234.980469 1535.285156 1244.269531 1536.085938 1262.019531 1536.085938 C 1270.910156 1536.085938 1279.789062 1536.085938 1288.660156 1536.085938 C 1285.441406 1532.867188 1282.210938 1529.652344 1278.980469 1526.441406 C 1272.519531 1520.007812 1266.871094 1517.195312 1262.019531 1517.996094 C 1257.179688 1518.804688 1253.960938 1520.816406 1252.339844 1524.027344 C 1250.71875 1527.242188 1233.371094 1528.453125 1200.269531 1527.648438 C 1167.160156 1526.839844 1146.179688 1523.628906 1137.300781 1517.996094 C 1128.421875 1512.371094 1121.960938 1509.558594 1117.921875 1509.558594 C 1113.890625 1509.558594 1105.410156 1512.777344 1092.5 1519.203125 Z M 3572.5 1522.820312 C 3570.890625 1524.828125 3569.28125 1526.839844 3567.660156 1528.847656 C 3571.300781 1528.847656 3574.929688 1528.847656 3578.558594 1528.847656 C 3582.191406 1528.847656 3585.820312 1528.847656 3589.460938 1528.847656 C 3589.058594 1527.242188 3588.648438 1525.640625 3588.25 1524.027344 C 3587.441406 1520.816406 3585.421875 1518.804688 3582.191406 1517.996094 C 3578.960938 1517.195312 3575.738281 1518.804688 3572.5 1522.820312 Z M 1063.429688 1527.648438 C 1065.050781 1528.046875 1066.660156 1528.453125 1068.28125 1528.847656 C 1066.660156 1528.453125 1065.050781 1528.046875 1063.429688 1527.648438 C 1061.808594 1527.242188 1060.199219 1526.839844 1058.589844 1526.441406 C 1060.199219 1526.839844 1061.808594 1527.242188 1063.429688 1527.648438 Z M 1400.070312 1533.671875 C 1395.230469 1536.890625 1382.710938 1538.492188 1362.53125 1538.492188 C 1352.441406 1538.492188 1342.351562 1538.492188 1332.261719 1538.492188 C 1333.070312 1539.304688 1333.878906 1540.105469 1334.679688 1540.910156 C 1336.300781 1542.515625 1363.339844 1544.523438 1415.808594 1546.9375 C 1468.289062 1549.347656 1495.339844 1551.355469 1496.949219 1552.96875 C 1498.558594 1554.574219 1510.269531 1555.78125 1532.058594 1556.582031 C 1553.859375 1557.386719 1566.78125 1558.59375 1570.820312 1560.199219 C 1574.851562 1561.804688 1578.890625 1562.613281 1582.929688 1562.613281 C 1586.960938 1562.613281 1589.390625 1561.804688 1590.191406 1560.199219 C 1591 1558.59375 1587.371094 1555.375 1579.289062 1550.554688 C 1571.21875 1545.730469 1563.949219 1544.125 1557.5 1545.730469 C 1551.039062 1547.335938 1530.050781 1547.742188 1494.519531 1546.9375 C 1459 1546.136719 1435.589844 1542.917969 1424.300781 1537.292969 C 1412.988281 1531.660156 1404.910156 1530.460938 1400.070312 1533.671875 Z M 3425.980469 1545.730469 C 3425.578125 1547.335938 3425.179688 1548.949219 3424.769531 1550.554688 C 3428 1550.148438 3431.230469 1549.75 3434.460938 1549.347656 C 3437.679688 1548.949219 3440.921875 1548.542969 3444.140625 1548.140625 C 3441.320312 1546.9375 3438.5 1545.730469 3435.671875 1544.523438 C 3432.839844 1543.316406 3430.019531 1542.117188 3427.191406 1540.910156 C 3426.789062 1542.515625 3426.378906 1544.125 3425.980469 1545.730469 Z M 1701.601562 1556.582031 C 1699.179688 1558.992188 1685.859375 1559.800781 1661.640625 1558.992188 C 1637.410156 1558.1875 1622.890625 1558.59375 1618.039062 1560.199219 C 1615.621094 1561 1613.199219 1561.804688 1610.769531 1562.613281 C 1634.589844 1564.21875 1658.410156 1565.824219 1682.21875 1567.4375 C 1729.851562 1570.644531 1754.878906 1571.457031 1757.300781 1569.84375 C 1758.511719 1569.042969 1759.730469 1568.238281 1760.929688 1567.4375 C 1755.691406 1567.03125 1750.441406 1566.632812 1745.191406 1566.230469 C 1734.699219 1565.425781 1728.238281 1563.417969 1725.820312 1560.199219 C 1723.390625 1556.980469 1719.359375 1554.972656 1713.710938 1554.167969 C 1708.058594 1553.367188 1704.019531 1554.167969 1701.601562 1556.582031 Z M 3279.460938 1563.8125 C 3278.648438 1565.824219 3277.839844 1567.832031 3277.03125 1569.84375 C 3279.859375 1569.84375 3282.691406 1569.84375 3285.511719 1569.84375 C 3288.339844 1569.84375 3291.160156 1569.84375 3293.980469 1569.84375 C 3291.96875 1567.832031 3289.949219 1565.824219 3287.929688 1563.8125 C 3285.910156 1561.804688 3283.898438 1559.800781 3281.878906 1557.792969 C 3281.070312 1559.800781 3280.269531 1561.804688 3279.460938 1563.8125 Z M 1851.761719 1567.4375 C 1846.101562 1570.644531 1836.820312 1571.457031 1823.898438 1569.84375 C 1810.988281 1568.238281 1800.089844 1567.4375 1791.210938 1567.4375 C 1782.328125 1567.4375 1777.480469 1568.238281 1776.679688 1569.84375 C 1776.269531 1570.644531 1775.871094 1571.457031 1775.46875 1572.257812 C 1795.25 1573.863281 1815.019531 1575.46875 1834.800781 1577.082031 C 1874.359375 1580.292969 1895.351562 1581.5 1897.769531 1580.695312 C 1898.980469 1580.292969 1900.191406 1579.894531 1901.398438 1579.488281 C 1901 1578.6875 1900.601562 1577.882812 1900.191406 1577.082031 C 1899.378906 1575.46875 1892.519531 1572.65625 1879.609375 1568.636719 C 1866.691406 1564.625 1857.410156 1564.21875 1851.761719 1567.4375 Z M 2010.390625 1575.875 C 2003.929688 1578.289062 1987.378906 1580.292969 1960.738281 1581.902344 C 1947.421875 1582.707031 1934.101562 1583.507812 1920.78125 1584.3125 C 1934.5 1584.3125 1948.230469 1584.3125 1961.949219 1584.3125 C 1989.398438 1584.3125 2009.578125 1585.519531 2022.5 1587.933594 C 2028.949219 1589.132812 2035.421875 1590.339844 2041.878906 1591.546875 C 2038.238281 1588.332031 2034.609375 1585.121094 2030.980469 1581.902344 C 2023.710938 1575.46875 2016.851562 1573.464844 2010.390625 1575.875 Z M 3132.929688 1578.289062 C 3130.910156 1579.488281 3128.890625 1580.695312 3126.878906 1581.902344 C 3127.691406 1583.109375 3128.488281 1584.3125 3129.300781 1585.519531 C 3130.910156 1587.933594 3134.140625 1588.332031 3138.988281 1586.726562 C 3143.839844 1585.121094 3146.25 1583.109375 3146.25 1580.695312 C 3146.25 1578.289062 3145.039062 1576.675781 3142.621094 1575.875 C 3140.199219 1575.070312 3136.96875 1575.875 3132.929688 1578.289062 Z M 2155.699219 1589.132812 C 2154.890625 1591.546875 2154.089844 1593.957031 2153.28125 1596.371094 C 2156.5 1596.777344 2159.738281 1597.171875 2162.96875 1597.578125 C 2169.429688 1598.382812 2173.058594 1596.371094 2173.871094 1591.546875 C 2174.269531 1589.132812 2174.671875 1586.726562 2175.070312 1584.3125 C 2172.25 1583.914062 2169.429688 1583.507812 2166.601562 1583.109375 C 2160.949219 1582.300781 2157.320312 1584.3125 2155.699219 1589.132812 Z M 2320.390625 1593.957031 C 2318.769531 1594.765625 2317.160156 1595.570312 2315.539062 1596.371094 C 2316.351562 1597.578125 2317.160156 1598.785156 2317.96875 1599.984375 C 2319.589844 1602.402344 2323.21875 1604.007812 2328.871094 1604.808594 C 2334.519531 1605.617188 2339.359375 1605.214844 2343.398438 1603.609375 C 2345.410156 1602.796875 2347.429688 1601.996094 2349.449219 1601.195312 C 2347.839844 1599.589844 2346.230469 1597.976562 2344.609375 1596.371094 C 2341.378906 1593.152344 2337.339844 1591.546875 2332.5 1591.546875 C 2327.660156 1591.546875 2323.621094 1592.351562 2320.390625 1593.957031 Z M 2983.988281 1596.371094 C 2983.988281 1597.976562 2983.988281 1599.589844 2983.988281 1601.195312 C 2986.410156 1600.789062 2988.828125 1600.390625 2991.25 1599.984375 C 2993.679688 1599.589844 2996.101562 1599.183594 2998.519531 1598.785156 C 2996.101562 1597.578125 2993.679688 1596.371094 2991.25 1595.164062 C 2988.828125 1593.957031 2986.410156 1592.757812 2983.988281 1591.546875 C 2983.988281 1593.152344 2983.988281 1594.765625 2983.988281 1596.371094 Z M 2482.660156 1597.578125 C 2479.429688 1599.984375 2478.621094 1602.402344 2480.230469 1604.808594 C 2481.851562 1607.222656 2486.289062 1608.429688 2493.558594 1608.429688 C 2500.820312 1608.429688 2505.261719 1607.621094 2506.878906 1606.015625 C 2508.488281 1604.410156 2508.890625 1602.402344 2508.078125 1599.984375 C 2507.28125 1597.578125 2503.640625 1595.964844 2497.179688 1595.164062 C 2490.730469 1594.359375 2485.878906 1595.164062 2482.660156 1597.578125 Z M 2825.359375 1599.984375 C 2823.339844 1601.996094 2821.320312 1604.007812 2819.300781 1606.015625 C 2823.730469 1606.015625 2828.179688 1606.015625 2832.621094 1606.015625 C 2837.058594 1606.015625 2841.5 1606.015625 2845.941406 1606.015625 C 2845.128906 1604.410156 2844.320312 1602.796875 2843.519531 1601.195312 C 2841.898438 1597.976562 2839.480469 1595.964844 2836.25 1595.164062 C 2833.019531 1594.359375 2829.390625 1595.964844 2825.359375 1599.984375 Z M 2655.820312 1603.609375 C 2655.421875 1606.015625 2655.019531 1608.429688 2654.609375 1610.839844 C 2658.238281 1610.441406 2661.878906 1610.035156 2665.511719 1609.632812 C 2669.140625 1609.234375 2672.769531 1608.828125 2676.410156 1608.429688 C 2676 1606.421875 2675.601562 1604.410156 2675.199219 1602.402344 C 2674.390625 1598.382812 2671.160156 1596.371094 2665.511719 1596.371094 C 2659.859375 1596.371094 2656.628906 1598.785156 2655.820312 1603.609375 Z M 2655.820312 1603.609375 "/>
</svg>
