<?xml version="1.0" encoding="utf-8"?>
<!-- Generator: Adobe Illustrator 19.0.0, SVG Export Plug-In . SVG Version: 6.00 Build 0)  -->
<svg xmlns="http://www.w3.org/2000/svg" xmlns:xlink="http://www.w3.org/1999/xlink" version="1.1" x="0px" y="0px" viewBox="0 0 649 485" style="enable-background:new 0 0 649 485;" xml:space="preserve">
<style type="text/css">
	.st0{opacity:0.5;fill:url(#SVGID_1_);}
	.st1{fill:#FFFFFF;}
	.st2{fill:#231F20;}
	.st3{fill:#020303;}
	.st4{fill:#1C9BD4;}
	.st5{fill:#E1B15A;}
	.st6{fill:#473416;}
	.st7{fill:#E27428;}
</style>

<g id="FreeVector.com_License">
	<g>
		<g id="FreeVector.com_Logo_20_">
			<g id="FreeVector.com_Logo_21_">
				<path d="M120.2,499.8c0-0.9-0.8-1.5-1.6-1.5c-1.9,0-2.1,1.6-2.1,3c0,1.3,0.6,2.7,2,2.7c1.1,0,1.7-0.7,1.9-1.7h3.2      c-0.3,2.7-2.4,4.3-5.1,4.3c-3,0-5.3-2.1-5.3-5.2c0-3.2,2-5.5,5.3-5.5c2.5,0,4.8,1.3,5,4H120.2z"/>
				<path d="M128.8,495.9c-3.1,0-5.3,2.3-5.3,5.3c0,3,2.2,5.3,5.3,5.3c3.1,0,5.3-2.3,5.3-5.3C134.1,498.2,131.9,495.9,128.8,495.9z"/>
				<path d="M111.5,503.4c-0.9,0-1.5,0.6-1.5,1.5c0,0.8,0.6,1.5,1.5,1.5c0.9,0,1.5-0.6,1.5-1.5C112.9,504,112.3,503.4,111.5,503.4z"/>
				<path d="M134.4,496.5h3.1v1.4h0c0.6-1,1.6-1.6,2.8-1.6c1.2,0,2.3,0.4,2.9,1.6c0.8-1,1.7-1.6,3.1-1.6c3.1,0,3.5,2.4,3.5,4.3v5.9      h-3.2v-5.8c0-1.1-0.5-1.7-1.3-1.7c-1.4,0-1.5,1.1-1.5,2.7v4.8h-3.2v-5.6c0-1.2-0.3-1.9-1.2-1.9c-1.2,0-1.7,0.7-1.7,2.7v4.8h-3.2      V496.5z"/>
				<polygon points="68.7,506.3 65,506.3 61.7,496.5 65,496.5 66.8,503 66.9,503 68.7,496.5 71.9,496.5     "/>
				<path d="M73.7,502.2c0.1,1.3,0.8,2.2,2.2,2.2c0.8,0,1.5-0.4,1.8-1.1h3c-0.6,2.3-2.7,3.2-4.9,3.2c-3.2,0-5.3-1.9-5.3-5.2      c0-3,2.4-5.1,5.3-5.1c3.5,0,5.2,2.6,5.1,5.9H73.7z"/>
				<path d="M87.7,500.1c0-0.8-0.8-1.4-1.6-1.4c-1.8,0-2.1,1.5-2.1,2.9c0,1.3,0.5,2.6,1.9,2.6c1.1,0,1.7-0.6,1.8-1.7h3.1      c-0.3,2.6-2.3,4.1-4.9,4.1c-2.9,0-5.1-2-5.1-5c0-3.1,2-5.3,5.1-5.3c2.4,0,4.6,1.3,4.8,3.9H87.7z"/>
				<path d="M96.9,498.6h-2v4.4c0,0.8,0.5,0.9,1.1,0.9c0.3,0,0.5,0,0.8,0v2.4c-0.6,0-1.2,0.1-1.7,0.1c-2.7,0-3.4-0.8-3.4-3.4v-4.3      h-1.6v-2.1h1.6v-3H95v3h2V498.6z"/>
				<path d="M101.3,496.2c-3,0-5.1,2.2-5.1,5.2c0,2.9,2.1,5.2,5.1,5.2c3,0,5.2-2.2,5.2-5.2C106.5,498.5,104.4,496.2,101.3,496.2z"/>
				<path d="M106.3,496.5h3.1v1.7h0c0.5-1.2,1.6-1.9,2.9-1.9c0.2,0,0.5,0,0.8,0.1v2.9c-0.4-0.1-0.8-0.2-1.2-0.2      c-1.6,0-2.4,1.1-2.4,2.3v4.8h-3.2V496.5z"/>
				<path d="M36.6,496.5h3.1v1.7h0c0.5-1.2,1.6-1.9,2.9-1.9c0.2,0,0.5,0,0.7,0.1v2.9c-0.4-0.1-0.8-0.2-1.2-0.2      c-1.6,0-2.4,1.1-2.4,2.3v4.8h-3.2V496.5z"/>
				<path d="M45.5,502.2c0.1,1.3,0.8,2.2,2.2,2.2c0.8,0,1.5-0.4,1.8-1.1h3c-0.6,2.3-2.7,3.2-4.9,3.2c-3.2,0-5.3-1.9-5.3-5.2      c0-3,2.4-5.1,5.3-5.1c3.5,0,5.2,2.6,5.1,5.9H45.5z"/>
				<path d="M55.6,502.2c0.1,1.3,0.8,2.2,2.2,2.2c0.8,0,1.5-0.4,1.8-1.1h3c-0.6,2.3-2.7,3.2-4.9,3.2c-3.2,0-5.3-1.9-5.3-5.2      c0-3,2.4-5.1,5.3-5.1c3.5,0,5.2,2.6,5.1,5.9H55.6z"/>
				<path d="M36,495.1c0.3,0,0.6,0,0.9,0.1v-2.3c-0.5,0-1-0.1-1.5-0.1c-2.7,0-3.7,0.9-3.7,3.7h-1.5v2.1h1.5v7.7h3.2v-7.7h1.9v-2.1      h-1.9v-0.4C34.8,495.2,35.3,495.1,36,495.1z"/>
			</g>
			<g id="FreeVector_Icon_3_">
				<circle class="st1" cx="19.7" cy="499.6" r="7.2"/>
				<g>
					<path d="M19.7,492.4c-0.7,0-1.3,0.1-1.9,0.2c0.2,0,0.4,0.2,0.5,0.5c0,0,1.4,4.5,1.5,5c0.2,0.5,0.4,1.1,0.4,1.1       c-0.1,0.1-0.2,0.2-0.3,0.4c-0.1,0.3-0.2,0.5-0.2,0.8c-0.2-0.4-1-1.4-1.6-2c0,0,0-0.4-0.2-0.9c-0.1-0.4-0.9-3.3-0.9-3.3       c-0.1-0.5-0.1-1,0.2-1.3c-2.8,1-4.9,3.7-4.9,6.8c0,2.9,1.7,5.3,4.1,6.5c-0.2-0.4-0.5-0.9-0.7-1.7c-0.2-1.3-0.3-2.2-0.4-2.9       c-0.2-1-0.2-1.2,0.2-1.7c0.2-0.2,0.4-0.3,0.5-0.4c0.2,0,0.4,0.1,0.4,0.1c0.4,0.5,1.2,1.3,1.3,1.5c0.2,0.2,0.2,0.5,0.1,0.9       c-0.1,0.1-0.2,0.2-0.3,0.2c-0.3,0.1-0.6,0-0.7-0.1c-0.2-0.2-1.3-1.2-1.3-1.2c0,0.3,0.8,0.9,1.2,1.3c0.2,0.2,0.6,0.2,0.9,0.1       c0.2-0.1,0.4-0.2,0.5-0.3c0.1-0.3,0.1-0.5,0.1-0.7c0.3,0.2,0.6,0.3,0.9,0.2c0.3-0.1,0.5-0.3,0.6-0.4c0,0.2,0.1,0.4,0.1,0.7       c0.1,0.6,0.2,1,0.3,1.2c0,0.1,0.1,0.2,0.1,0.2c0,0,0,0,0,0c-0.2,0.2-0.4,0.6-0.6,1.1c-0.1,0.3-0.2,0.8-0.2,1.2       c0,0.1,0,0.4,0,0.4c0,0,0-0.2,0.1-0.4c0-0.4,0.1-0.8,0.2-1.1c0.2-0.4,0.4-0.7,0.6-1c0,0,0,0,0,0c0.1-0.1,0-0.2,0-0.3       c-0.1-0.2-0.2-0.6-0.3-1.2c-0.1-0.9-0.2-1.3,0.1-2c0.3-0.6,1-0.6,1.2-0.5c0.1,0,0.1,0.4,0.1,0.7c0,0.3,0,0.8,0.1,1.3       c0.1,0.7,0.3,1.2,0.6,1.5c0.2,0.2,0.4,0.3,0.4,0.3c0,0-0.1-0.2-0.3-0.4c-0.2-0.3-0.4-0.8-0.5-1.4c-0.1-0.5-0.1-0.9-0.1-1.3       c0-0.5,0-0.8-0.2-0.9c-0.1,0-0.3-0.1-0.5,0l1.4-4.5c0.2-0.8,0.5-1.2,1-1.1c0,0,0,0,0,0C22.2,492.7,21,492.4,19.7,492.4z        M19,501.2c-0.4,0.1-0.8-0.2-1-0.4c-0.2-0.2-1.2-1.3-1.4-1.5c-0.3-0.3-0.1-0.9,0.6-1.2c0.2-0.1,0.5-0.1,0.6,0.1       c0.8,0.9,1.6,1.9,1.6,2.1C19.6,500.8,19.4,501,19,501.2z M22.2,502.9L22.2,502.9C22.2,502.9,22.2,502.9,22.2,502.9       C22.2,502.9,22.2,502.9,22.2,502.9z"/>
					<path d="M23.6,493.5c0.2,0.2,0.2,0.4,0.2,0.7l-1.2,5.4c-0.1,0.4-0.2,1.3-0.1,1.9c0.1,0.8,0.5,1.9,0.2,3.1       c-0.1,0.6-0.3,1.3-0.6,1.9c2.9-1,5-3.7,5-6.8C27,497,25.7,494.8,23.6,493.5z"/>
				</g>
			</g>
		</g>
		<g id="Legal_Line">
			<g>
				<path d="M164.3,496.7h2.5v9.6h-2.5V496.7z"/>
				<path d="M168.4,499.3h2.2v1h0c0.4-0.7,1.2-1.2,2-1.2c0.9,0,1.7,0.3,2,1.1c0.6-0.7,1.2-1.1,2.2-1.1c2.2,0,2.5,1.7,2.5,3v4.2H177      v-4.1c0-0.8-0.4-1.2-1-1.2c-1,0-1.1,0.8-1.1,1.9v3.4h-2.3v-4c0-0.8-0.2-1.3-0.9-1.3c-0.8,0-1.2,0.5-1.2,1.9v3.4h-2.3V499.3z"/>
				<path d="M180.7,501.5c0-0.9,0.5-1.5,1.1-1.9c0.6-0.3,1.4-0.5,2.2-0.5c1.7,0,3.2,0.4,3.2,2.3v3c0,0.6,0,1.2,0.3,1.8h-2.3      c-0.1-0.2-0.1-0.4-0.1-0.7c-0.6,0.6-1.5,0.9-2.3,0.9c-1.3,0-2.4-0.7-2.4-2.1c0-2.3,2.5-2.1,4.1-2.4c0.4-0.1,0.6-0.2,0.6-0.6      c0-0.5-0.6-0.7-1.1-0.7c-0.6,0-1,0.3-1.1,0.9H180.7z M183.7,505.1c1.1,0,1.5-0.6,1.4-2.1c-0.3,0.2-0.9,0.2-1.4,0.4      c-0.5,0.1-0.9,0.3-0.9,0.9C182.7,504.9,183.2,505.1,183.7,505.1z"/>
				<path d="M195.5,505.5c0,1.1-0.2,3.3-3.5,3.3c-1.6,0-3.2-0.4-3.4-2.2h2.3c0.1,0.3,0.2,0.5,0.4,0.6c0.2,0.1,0.5,0.1,0.8,0.1      c1.1,0,1.2-0.8,1.2-1.6V505h0c-0.4,0.6-1.1,1-1.9,1c-2.1,0-3.1-1.5-3.1-3.5c0-1.9,1.1-3.4,3.1-3.4c0.8,0,1.5,0.4,1.9,1.1h0v-0.9      h2.2V505.5z M192,500.9c-1,0-1.3,0.9-1.3,1.7c0,0.8,0.4,1.6,1.3,1.6c1,0,1.4-0.8,1.4-1.6C193.4,501.8,193,500.9,192,500.9z"/>
				<path d="M198.9,503.4c0,1,0.6,1.6,1.6,1.6c0.6,0,1.1-0.3,1.3-0.8h2.1c-0.4,1.6-1.9,2.3-3.5,2.3c-2.3,0-3.8-1.4-3.8-3.7      c0-2.1,1.7-3.7,3.8-3.7c2.5,0,3.7,1.9,3.6,4.2H198.9z M201.8,502.1c0-0.8-0.6-1.4-1.4-1.4c-0.8,0-1.3,0.6-1.5,1.4H201.8z"/>
				<path d="M207,504c0,0.3,0.1,0.6,0.4,0.8c0.2,0.2,0.5,0.2,0.8,0.2c0.4,0,1.1-0.2,1.1-0.7c0-0.5-0.7-0.6-1.1-0.7      c-1.4-0.4-3.2-0.4-3.2-2.3c0-1.7,1.8-2.1,3.2-2.1c1.5,0,3.1,0.4,3.2,2.3h-2.1c0-0.3-0.1-0.5-0.3-0.6c-0.2-0.1-0.4-0.2-0.7-0.2      c-0.4,0-1,0-1,0.5c0,0.7,1.5,0.8,2.6,1c1.4,0.3,1.8,1.3,1.8,1.9c0,1.9-1.8,2.5-3.3,2.5c-1.7,0-3.3-0.6-3.4-2.5H207z"/>
			</g>
			<g>
				<path d="M216.8,501.5c0-0.9,0.5-1.5,1.1-1.9c0.6-0.3,1.4-0.5,2.2-0.5c1.7,0,3.2,0.4,3.2,2.3v3c0,0.6,0,1.2,0.3,1.8h-2.3      c-0.1-0.2-0.1-0.4-0.1-0.7c-0.6,0.6-1.5,0.9-2.3,0.9c-1.3,0-2.4-0.7-2.4-2.1c0-2.3,2.5-2.1,4.1-2.4c0.4-0.1,0.6-0.2,0.6-0.6      c0-0.5-0.6-0.7-1.1-0.7c-0.6,0-1,0.3-1.1,0.9H216.8z M219.7,505.1c1.1,0,1.5-0.6,1.4-2.1c-0.3,0.2-0.9,0.2-1.4,0.4      c-0.5,0.1-0.9,0.3-0.9,0.9C218.8,504.9,219.2,505.1,219.7,505.1z"/>
				<path d="M224.9,499.3h2.2v1.2h0c0.3-0.9,1.1-1.4,2.1-1.4c0.2,0,0.4,0,0.5,0.1v2.1c-0.3-0.1-0.6-0.1-0.9-0.1      c-1.1,0-1.7,0.8-1.7,1.7v3.5h-2.3V499.3z"/>
				<path d="M232.3,503.4c0,1,0.6,1.6,1.6,1.6c0.6,0,1.1-0.3,1.3-0.8h2.1c-0.4,1.6-1.9,2.3-3.5,2.3c-2.3,0-3.8-1.4-3.8-3.7      c0-2.1,1.7-3.7,3.8-3.7c2.5,0,3.7,1.9,3.6,4.2H232.3z M235.1,502.1c0-0.8-0.6-1.4-1.4-1.4c-0.8,0-1.3,0.6-1.5,1.4H235.1z"/>
			</g>
			<g>
				<path d="M242.7,499.3h2.2v0.8h0c0.4-0.7,1.1-1,1.9-1c2.2,0,3.1,1.9,3.1,3.8c0,1.8-1,3.5-2.9,3.5c-0.9,0-1.5-0.3-2-1h0v3.1h-2.3      V499.3z M244.9,502.8c0,1.2,0.3,2,1.4,2c1,0,1.4-1.1,1.4-2c0-0.9-0.3-1.9-1.4-1.9C245.7,500.9,244.9,501.3,244.9,502.8z"/>
				<path d="M251.3,499.3h2.2v1.2h0c0.3-0.9,1.1-1.4,2.1-1.4c0.2,0,0.4,0,0.5,0.1v2.1c-0.3-0.1-0.6-0.1-0.9-0.1      c-1.1,0-1.7,0.8-1.7,1.7v3.5h-2.3V499.3z"/>
				<path d="M260,499.1c2.2,0,3.7,1.6,3.7,3.7s-1.5,3.7-3.7,3.7c-2.2,0-3.7-1.6-3.7-3.7S257.8,499.1,260,499.1z M260,504.8      c1.1,0,1.4-1,1.4-1.9c0-0.9-0.3-1.9-1.4-1.9c-1.1,0-1.4,1.1-1.4,1.9C258.6,503.7,258.9,504.8,260,504.8z"/>
				<path d="M264.9,499.3h2.2v0.8h0c0.4-0.7,1.1-1,1.9-1c2.2,0,3.1,1.9,3.1,3.8c0,1.8-1,3.5-2.9,3.5c-0.9,0-1.5-0.3-2-1h0v3.1h-2.3      V499.3z M267.1,502.8c0,1.2,0.3,2,1.4,2c1,0,1.4-1.1,1.4-2c0-0.9-0.3-1.9-1.4-1.9C267.9,500.9,267.1,501.3,267.1,502.8z"/>
				<path d="M275.3,503.4c0,1,0.6,1.6,1.6,1.6c0.6,0,1.1-0.3,1.3-0.8h2.1c-0.4,1.6-1.9,2.3-3.5,2.3c-2.3,0-3.8-1.4-3.8-3.7      c0-2.1,1.7-3.7,3.8-3.7c2.5,0,3.7,1.9,3.6,4.2H275.3z M278.1,502.1c0-0.8-0.6-1.4-1.4-1.4c-0.8,0-1.3,0.6-1.5,1.4H278.1z"/>
				<path d="M281.6,499.3h2.2v1.2h0c0.3-0.9,1.1-1.4,2.1-1.4c0.2,0,0.4,0,0.5,0.1v2.1c-0.3-0.1-0.6-0.1-0.9-0.1      c-1.1,0-1.7,0.8-1.7,1.7v3.5h-2.3V499.3z"/>
				<path d="M291.5,500.8H290v3.2c0,0.5,0.3,0.7,0.8,0.7c0.2,0,0.4,0,0.6,0v1.7c-0.4,0-0.8,0.1-1.2,0.1c-1.9,0-2.4-0.6-2.4-2.5v-3.1      h-1.2v-1.5h1.2v-2.1h2.3v2.1h1.4V500.8z"/>
				<path d="M296.3,506.9c-0.6,1.5-1.4,1.7-2.9,1.7h-1.1v-1.9h0.8c0.5,0,0.9-0.3,0.9-0.8c0-0.4-0.4-1.4-0.6-1.8l-1.8-4.8h2.4      l1.3,4.5h0l1.3-4.5h2.3L296.3,506.9z"/>
			</g>
			<g>
				<path d="M307.2,499.1c2.2,0,3.7,1.6,3.7,3.7s-1.5,3.7-3.7,3.7c-2.2,0-3.7-1.6-3.7-3.7S305.1,499.1,307.2,499.1z M307.2,504.8      c1.1,0,1.4-1,1.4-1.9c0-0.9-0.3-1.9-1.4-1.9c-1.1,0-1.4,1.1-1.4,1.9C305.9,503.7,306.2,504.8,307.2,504.8z"/>
				<path d="M312.6,500.8h-1.1v-1.5h1.1c0-2,0.7-2.6,2.6-2.6c0.4,0,0.7,0,1.1,0v1.6c-0.2,0-0.4,0-0.6,0c-0.5,0-0.8,0.1-0.8,0.7v0.3      h1.4v1.5h-1.4v5.5h-2.3V500.8z"/>
			</g>
			<g>
				<path d="M325.5,500.8h-1.4v3.2c0,0.5,0.3,0.7,0.8,0.7c0.2,0,0.4,0,0.6,0v1.7c-0.4,0-0.8,0.1-1.2,0.1c-1.9,0-2.4-0.6-2.4-2.5      v-3.1h-1.2v-1.5h1.2v-2.1h2.3v2.1h1.4V500.8z"/>
				<path d="M326.5,496.7h2.3v3.6h0c0.3-0.7,1.3-1.2,2.1-1.2c2.3,0,2.5,1.7,2.5,2.7v4.5h-2.3v-3.4c0-1,0.1-1.9-1.1-1.9      c-0.9,0-1.2,0.7-1.2,1.5v3.8h-2.3V496.7z"/>
				<path d="M336.9,503.4c0,1,0.6,1.6,1.6,1.6c0.6,0,1.1-0.3,1.3-0.8h2.1c-0.4,1.6-1.9,2.3-3.5,2.3c-2.3,0-3.8-1.4-3.8-3.7      c0-2.1,1.7-3.7,3.8-3.7c2.5,0,3.7,1.9,3.6,4.2H336.9z M339.8,502.1c0-0.8-0.6-1.4-1.4-1.4c-0.8,0-1.3,0.6-1.5,1.4H339.8z"/>
			</g>
			<g>
				<path d="M354.3,506.3h-2.2v-0.8h0c-0.4,0.7-1.1,1-1.9,1c-2.2,0-3.1-1.9-3.1-3.8c0-1.8,1-3.5,2.9-3.5c0.9,0,1.5,0.3,2,1h0v-3.4      h2.3V506.3z M349.4,502.8c0,1,0.3,2,1.4,2c1.1,0,1.4-1.1,1.4-1.9c0-1-0.4-1.9-1.4-1.9C349.7,500.9,349.4,501.9,349.4,502.8z"/>
				<path d="M357.8,503.4c0,1,0.6,1.6,1.6,1.6c0.6,0,1.1-0.3,1.3-0.8h2.1c-0.4,1.6-1.9,2.3-3.5,2.3c-2.3,0-3.8-1.4-3.8-3.7      c0-2.1,1.7-3.7,3.8-3.7c2.5,0,3.7,1.9,3.6,4.2H357.8z M360.7,502.1c0-0.8-0.6-1.4-1.4-1.4c-0.8,0-1.3,0.6-1.5,1.4H360.7z"/>
				<path d="M365.8,504c0,0.3,0.1,0.6,0.4,0.8c0.2,0.2,0.5,0.2,0.8,0.2c0.4,0,1.1-0.2,1.1-0.7c0-0.5-0.7-0.6-1.1-0.7      c-1.4-0.4-3.2-0.4-3.2-2.3c0-1.7,1.8-2.1,3.2-2.1c1.5,0,3.1,0.4,3.2,2.3h-2.1c0-0.3-0.1-0.5-0.3-0.6c-0.2-0.1-0.4-0.2-0.7-0.2      c-0.4,0-1,0-1,0.5c0,0.7,1.5,0.8,2.6,1c1.4,0.3,1.8,1.3,1.8,1.9c0,1.9-1.8,2.5-3.3,2.5c-1.7,0-3.3-0.6-3.4-2.5H365.8z"/>
				<path d="M373.9,498.5h-2.3v-1.7h2.3V498.5z M371.6,499.3h2.3v7h-2.3V499.3z"/>
				<path d="M382.3,505.5c0,1.1-0.2,3.3-3.5,3.3c-1.6,0-3.2-0.4-3.4-2.2h2.3c0.1,0.3,0.2,0.5,0.4,0.6c0.2,0.1,0.5,0.1,0.8,0.1      c1.1,0,1.2-0.8,1.2-1.6V505h0c-0.4,0.6-1.1,1-1.9,1c-2.1,0-3.1-1.5-3.1-3.5c0-1.9,1.1-3.4,3.1-3.4c0.8,0,1.5,0.4,1.9,1.1h0v-0.9      h2.2V505.5z M378.7,500.9c-1,0-1.3,0.9-1.3,1.7c0,0.8,0.4,1.6,1.3,1.6c1,0,1.4-0.8,1.4-1.6C380.1,501.8,379.7,500.9,378.7,500.9      z"/>
				<path d="M383.7,499.3h2.2v1h0c0.4-0.7,1.4-1.2,2.2-1.2c2.3,0,2.5,1.7,2.5,2.7v4.5h-2.3v-3.4c0-1,0.1-1.9-1.1-1.9      c-0.9,0-1.2,0.7-1.2,1.5v3.8h-2.3V499.3z"/>
				<path d="M394.1,503.4c0,1,0.6,1.6,1.6,1.6c0.6,0,1.1-0.3,1.3-0.8h2.1c-0.4,1.6-1.9,2.3-3.5,2.3c-2.3,0-3.8-1.4-3.8-3.7      c0-2.1,1.7-3.7,3.8-3.7c2.5,0,3.7,1.9,3.6,4.2H394.1z M397,502.1c0-0.8-0.6-1.4-1.4-1.4c-0.8,0-1.3,0.6-1.5,1.4H397z"/>
				<path d="M400.5,499.3h2.2v1.2h0c0.3-0.9,1.1-1.4,2.1-1.4c0.2,0,0.4,0,0.5,0.1v2.1c-0.3-0.1-0.6-0.1-0.9-0.1      c-1.1,0-1.7,0.8-1.7,1.7v3.5h-2.3V499.3z"/>
			</g>
			<path d="M405,503.8h2.5v2.5H405V503.8z"/>
			<g>
				<path d="M422.7,500.2c-0.1-1-0.9-1.5-1.9-1.5c-1.6,0-2.2,1.4-2.2,2.8c0,1.4,0.6,2.8,2.2,2.8c1.2,0,1.8-0.7,1.9-1.8h2.5      c-0.1,2.5-1.9,3.9-4.4,3.9c-2.9,0-4.8-2.2-4.8-5c0-2.8,1.9-5,4.8-5c2.1,0,4.3,1.3,4.4,3.6H422.7z"/>
				<path d="M426.5,496.7h2.3v3.6h0c0.3-0.7,1.3-1.2,2.1-1.2c2.3,0,2.5,1.7,2.5,2.7v4.5h-2.3v-3.4c0-1,0.1-1.9-1.1-1.9      c-0.9,0-1.2,0.7-1.2,1.5v3.8h-2.3V496.7z"/>
				<path d="M436.9,503.4c0,1,0.6,1.6,1.6,1.6c0.6,0,1.1-0.3,1.3-0.8h2.1c-0.4,1.6-1.9,2.3-3.5,2.3c-2.3,0-3.8-1.4-3.8-3.7      c0-2.1,1.7-3.7,3.8-3.7c2.5,0,3.7,1.9,3.6,4.2H436.9z M439.7,502.1c0-0.8-0.6-1.4-1.4-1.4c-0.8,0-1.3,0.6-1.5,1.4H439.7z"/>
				<path d="M447.7,501.9c0-0.6-0.5-1-1.1-1c-1.3,0-1.5,1.1-1.5,2.1c0,0.9,0.4,1.8,1.4,1.8c0.8,0,1.2-0.5,1.3-1.2h2.2      c-0.2,1.9-1.7,2.9-3.5,2.9c-2.1,0-3.7-1.4-3.7-3.6c0-2.2,1.4-3.8,3.7-3.8c1.7,0,3.3,0.9,3.4,2.8H447.7z"/>
				<path d="M451.1,496.7h2.3v4.9l2.1-2.3h2.6l-2.6,2.6l2.9,4.3h-2.8l-1.7-2.8l-0.6,0.6v2.2h-2.3V496.7z"/>
			</g>
			<g>
				<path d="M463.3,496.7h2.3v9.6h-2.3V496.7z"/>
				<path d="M469.6,498.5h-2.3v-1.7h2.3V498.5z M467.3,499.3h2.3v7h-2.3V499.3z"/>
				<path d="M475.7,501.9c0-0.6-0.5-1-1.1-1c-1.3,0-1.5,1.1-1.5,2.1c0,0.9,0.4,1.8,1.4,1.8c0.8,0,1.2-0.5,1.3-1.2h2.2      c-0.2,1.9-1.7,2.9-3.5,2.9c-2.1,0-3.7-1.4-3.7-3.6c0-2.2,1.4-3.8,3.7-3.8c1.7,0,3.3,0.9,3.4,2.8H475.7z"/>
				<path d="M481.1,503.4c0,1,0.6,1.6,1.6,1.6c0.6,0,1.1-0.3,1.3-0.8h2.1c-0.4,1.6-1.9,2.3-3.5,2.3c-2.3,0-3.8-1.4-3.8-3.7      c0-2.1,1.7-3.7,3.8-3.7c2.5,0,3.7,1.9,3.6,4.2H481.1z M483.9,502.1c0-0.8-0.6-1.4-1.4-1.4c-0.8,0-1.3,0.6-1.5,1.4H483.9z"/>
				<path d="M487.4,499.3h2.2v1h0c0.4-0.7,1.4-1.2,2.2-1.2c2.3,0,2.5,1.7,2.5,2.7v4.5H492v-3.4c0-1,0.1-1.9-1.1-1.9      c-0.9,0-1.2,0.7-1.2,1.5v3.8h-2.3V499.3z"/>
				<path d="M497.6,504c0,0.3,0.1,0.6,0.4,0.8c0.2,0.2,0.5,0.2,0.8,0.2c0.4,0,1.1-0.2,1.1-0.7c0-0.5-0.7-0.6-1.1-0.7      c-1.4-0.4-3.2-0.4-3.2-2.3c0-1.7,1.8-2.1,3.2-2.1c1.5,0,3.1,0.4,3.2,2.3h-2.1c0-0.3-0.1-0.5-0.3-0.6c-0.2-0.1-0.4-0.2-0.7-0.2      c-0.4,0-1,0-1,0.5c0,0.7,1.5,0.8,2.6,1c1.4,0.3,1.8,1.3,1.8,1.9c0,1.9-1.8,2.5-3.3,2.5c-1.7,0-3.3-0.6-3.4-2.5H497.6z"/>
				<path d="M505.2,503.4c0,1,0.6,1.6,1.6,1.6c0.5,0,1.1-0.3,1.3-0.8h2.1c-0.4,1.6-1.9,2.3-3.5,2.3c-2.3,0-3.8-1.4-3.8-3.7      c0-2.1,1.7-3.7,3.8-3.7c2.5,0,3.7,1.9,3.6,4.2H505.2z M508.1,502.1c0-0.8-0.6-1.4-1.4-1.4c-0.8,0-1.3,0.6-1.5,1.4H508.1z"/>
			</g>
			<g>
				<path d="M516.2,500.8h-1.1v-1.5h1.1c0-2,0.7-2.6,2.6-2.6c0.4,0,0.7,0,1.1,0v1.6c-0.2,0-0.4,0-0.6,0c-0.5,0-0.8,0.1-0.8,0.7v0.3      h1.4v1.5h-1.4v5.5h-2.3V500.8z"/>
				<path d="M524,499.1c2.2,0,3.7,1.6,3.7,3.7s-1.5,3.7-3.7,3.7c-2.2,0-3.7-1.6-3.7-3.7S521.9,499.1,524,499.1z M524,504.8      c1.1,0,1.4-1,1.4-1.9c0-0.9-0.3-1.9-1.4-1.9c-1.1,0-1.4,1.1-1.4,1.9C522.6,503.7,523,504.8,524,504.8z"/>
				<path d="M529,499.3h2.2v1.2h0c0.3-0.9,1.1-1.4,2.1-1.4c0.2,0,0.4,0,0.5,0.1v2.1c-0.3-0.1-0.6-0.1-0.9-0.1      c-1.1,0-1.7,0.8-1.7,1.7v3.5H529V499.3z"/>
			</g>
			<g>
				<path d="M538.8,499.3h2.2v0.8h0c0.4-0.7,1.1-1,1.9-1c2.2,0,3.1,1.9,3.1,3.8c0,1.8-1,3.5-2.9,3.5c-0.9,0-1.5-0.3-2-1h0v3.1h-2.3      V499.3z M541,502.8c0,1.2,0.3,2,1.4,2c1,0,1.4-1.1,1.4-2c0-0.9-0.4-1.9-1.4-1.9C541.8,500.9,541,501.3,541,502.8z"/>
				<path d="M549.2,503.4c0,1,0.6,1.6,1.6,1.6c0.6,0,1.1-0.3,1.3-0.8h2.1c-0.4,1.6-1.9,2.3-3.5,2.3c-2.3,0-3.8-1.4-3.8-3.7      c0-2.1,1.7-3.7,3.8-3.7c2.5,0,3.7,1.9,3.6,4.2H549.2z M552.1,502.1c0-0.8-0.6-1.4-1.4-1.4c-0.8,0-1.3,0.6-1.5,1.4H552.1z"/>
				<path d="M555.6,499.3h2.2v1.2h0c0.3-0.9,1.1-1.4,2.1-1.4c0.2,0,0.4,0,0.5,0.1v2.1c-0.3-0.1-0.6-0.1-0.9-0.1      c-1.1,0-1.7,0.8-1.7,1.7v3.5h-2.3V499.3z"/>
				<path d="M561.2,499.3h2.2v1h0c0.4-0.7,1.2-1.2,2-1.2c0.9,0,1.7,0.3,2,1.1c0.6-0.7,1.2-1.1,2.2-1.1c2.2,0,2.5,1.7,2.5,3v4.2h-2.3      v-4.1c0-0.8-0.4-1.2-1-1.2c-1,0-1.1,0.8-1.1,1.9v3.4h-2.3v-4c0-0.8-0.2-1.3-0.9-1.3c-0.8,0-1.2,0.5-1.2,1.9v3.4h-2.3V499.3z"/>
				<path d="M576,498.5h-2.3v-1.7h2.3V498.5z M573.7,499.3h2.3v7h-2.3V499.3z"/>
				<path d="M581.8,500.8h-1.4v3.2c0,0.5,0.3,0.7,0.8,0.7c0.2,0,0.4,0,0.6,0v1.7c-0.4,0-0.8,0.1-1.2,0.1c-1.9,0-2.4-0.6-2.4-2.5      v-3.1H577v-1.5h1.2v-2.1h2.3v2.1h1.4V500.8z"/>
				<path d="M587,500.8h-1.4v3.2c0,0.5,0.3,0.7,0.8,0.7c0.2,0,0.4,0,0.6,0v1.7c-0.4,0-0.8,0.1-1.2,0.1c-1.9,0-2.4-0.6-2.4-2.5v-3.1      h-1.2v-1.5h1.2v-2.1h2.3v2.1h1.4V500.8z"/>
				<path d="M590,503.4c0,1,0.6,1.6,1.6,1.6c0.6,0,1.1-0.3,1.3-0.8h2.1c-0.4,1.6-1.9,2.3-3.5,2.3c-2.3,0-3.8-1.4-3.8-3.7      c0-2.1,1.7-3.7,3.8-3.7c2.5,0,3.7,1.9,3.6,4.2H590z M592.8,502.1c0-0.8-0.6-1.4-1.4-1.4c-0.8,0-1.3,0.6-1.5,1.4H592.8z"/>
				<path d="M603.2,506.3H601v-0.8h0c-0.4,0.7-1.1,1-1.9,1c-2.2,0-3.1-1.9-3.1-3.8c0-1.8,1-3.5,2.9-3.5c0.9,0,1.5,0.3,2,1h0v-3.4      h2.3V506.3z M598.2,502.8c0,1,0.3,2,1.4,2c1.1,0,1.4-1.1,1.4-1.9c0-1-0.4-1.9-1.4-1.9C598.6,500.9,598.2,501.9,598.2,502.8z"/>
			</g>
			<g>
				<path d="M615.9,506.3h-2.2v-1h0c-0.4,0.7-1.3,1.2-2.1,1.2c-2,0-2.6-1.2-2.6-3v-4.2h2.3v4c0,0.9,0.4,1.2,1.1,1.2      c0.5,0,1.2-0.3,1.2-1.6v-3.7h2.3V506.3z"/>
				<path d="M619.2,504c0,0.3,0.1,0.6,0.4,0.8c0.2,0.2,0.5,0.2,0.8,0.2c0.4,0,1.1-0.2,1.1-0.7c0-0.5-0.7-0.6-1.1-0.7      c-1.4-0.4-3.2-0.4-3.2-2.3c0-1.7,1.8-2.1,3.2-2.1c1.5,0,3.1,0.4,3.2,2.3h-2.1c0-0.3-0.1-0.5-0.3-0.6c-0.2-0.1-0.4-0.2-0.7-0.2      c-0.4,0-1,0-1,0.5c0,0.7,1.5,0.8,2.6,1c1.4,0.3,1.8,1.3,1.8,1.9c0,1.9-1.8,2.5-3.3,2.5c-1.7,0-3.3-0.6-3.4-2.5H619.2z"/>
				<path d="M626.8,503.4c0,1,0.6,1.6,1.6,1.6c0.6,0,1.1-0.3,1.3-0.8h2.1c-0.4,1.6-1.9,2.3-3.5,2.3c-2.3,0-3.8-1.4-3.8-3.7      c0-2.1,1.7-3.7,3.8-3.7c2.5,0,3.7,1.9,3.6,4.2H626.8z M629.6,502.1c0-0.8-0.6-1.4-1.4-1.4c-0.8,0-1.3,0.6-1.5,1.4H629.6z"/>
			</g>
			<path d="M633.2,503.8h2.5v2.5h-2.5V503.8z"/>
		</g>
	</g>
</g>
<g id="Vector_Graphics">
	<g>
		<path class="st2" d="M60.6,399.7c0,0-11.1,38.1,26.4,38.6c37.5,0.5,199.2-64,231.2-83.2c0,0,258.1-123.7,260.4-129.6l9.8-4    l4.3-14.1l-21.3-39.7l-7.9-6.8l0.8-6.2c0,0-48.6-87.4-74.1-104.1L479.1,47c0,0-14.5,13.2-23.5,36.6c0,0-26.7,46.2-136.9,6.7    l-8.3,1.1l-14.1,11.7l-6.4,3.2l-26.4,25.4l-8.5,5.1l-0.7,9.4l4.3,5.1l-1.5,6c0,0-11.3,3.6-9,13.8l-8.1,10l-14.1-1.1l-5.1,13.9    l-9.2,11.3l-11.1,6l-4.7,6l2.8,4.7l-7.9,15.6l-9.6,3.2l-8.7,12.2l-8.5,11.5l-10.2,2.3l-9.4,8.9l0,6.4l-3.8,8.7    c0,0-24.1,29.2-68,60.7l-4.1,3.8C68.5,355.2,47,370.7,60.6,399.7z"/>
		<path class="st3" d="M87.5,440.2C87.5,440.2,87.5,440.2,87.5,440.2l-0.5,0c-11.3-0.2-19.6-3.7-24.6-10.4    c-8-10.9-4.7-26.4-3.8-29.9c-13-28.6,7-44.8,8.7-46.1l4.3-3.9c41.2-29.6,65.2-57.5,67.4-60.2l3.5-8l0-6.8l10.4-9.8l10-2.2l8-10.9    l9-12.7l9.5-3.2l7.1-14l-3-4.9l5.8-7.4l11.1-6l8.8-10.8l5.5-15l14.6,1.2l6.9-8.5c-1.3-8.1,5.1-12.9,9.5-14.7l1-4.1l-4.2-4.9    l0.9-11.2l9.1-5.5l26.4-25.5l6.5-3.2l14.4-11.9l9.3-1.3l0.4,0.2c29.4,10.5,55.4,15.9,77.4,15.9c23,0,37.3-5.9,45.3-10.9    c7.9-4.9,11.3-9.9,11.8-10.7c9.1-23.4,23.3-36.6,24-37.1l0.8-0.7l12.4,4l0.2,0.1c25.5,16.8,72.7,101.2,74.7,104.8l0.3,0.5    l-0.7,5.8l7.4,6.3l0.2,0.3l21.7,40.4L590,223l-10.2,4.1c-2.8,2.7-19.2,12.3-131.3,67.1c-63.1,30.8-126.6,61.3-129.3,62.6    c-16.1,9.7-64.7,30.7-113.2,48.9C178.3,416,111.6,440.2,87.5,440.2z M73.8,352.9l-4.2,3.8c0,0-5.1,3.8-8.5,10.8    c-4.5,9.4-4.1,19.9,1.2,31.3l0.3,0.6l-0.2,0.7c0,0.2-4.7,16.8,3,27.3c4.2,5.7,11.5,8.7,21.5,8.8l0.5,0c0,0,0,0,0,0    c16.5,0,59.2-12.5,117.1-34.3c48.4-18.2,96.8-39.1,112.6-48.6l0.2-0.1c100.7-48.3,252.3-122.1,259.5-128.8l0.2-0.5l9.7-3.9    l3.8-12.5l-20.8-38.7l-8.4-7.2l0.8-6.6c-4.1-7.3-49.2-86.8-73-102.8l-9.8-3.1c-3.1,3.1-14.7,15.5-22.2,35.1l-0.1,0.3    c-0.6,1-14.2,23.6-60.5,23.6c-22.3,0-48.7-5.4-78.3-15.9l-7.3,1l-13.9,11.5l-6.3,3.2l-26.3,25.4l-7.8,4.7l-0.6,7.7l4.5,5.2l-2,8    l-1,0.3c-0.4,0.1-9.6,3.2-7.7,11.5l0.2,0.9l-9.3,11.5l-13.7-1.1l-4.7,12.9l-9.7,11.8l-11.1,6l-3.7,4.7l2.7,4.5l-8.7,17.3l-9.8,3.3    l-8.3,11.7l-8.9,12.1l-10.4,2.3l-8.4,7.9l0,6l-4,9.3L142,292C141.8,292.3,117.3,321.7,73.8,352.9z"/>
		<path class="st1" d="M77.6,349.3l-2.1,3.9c0,0,63.3-25,66.9-24.1c3.7,0.9,26.7,2.7,26.7,2.7s16.2,0.1,5.4-17.1l-29.2-19.6    l-4.3-0.5c0,0-44.3,45.4-58.9,52.4C67.5,354,77.6,349.3,77.6,349.3z"/>
		<path class="st4" d="M63.1,396.5c0,0-15-25,8.4-38.2c23.4-13.2,59.6-21.5,59.6-21.5s14.9-5.8,33.5-2.3c18.7,3.5,17.5-7.4,17.5-7.4    s5.8-7.5-10.4-18.8c-16.2-11.3-8-5.9-8-5.9l0.5-2.1l39.3-34.4c0,0,14.1,30.9,81.2,37.6l-0.1,2.8    C284.5,306.4,92.3,398.2,63.1,396.5z"/>
		<path class="st5" d="M64.8,423.2c0,0,2,18.4,46.4,7.9c0,0,53.1-15.7,56.4-17c3.3-1.3,132.1-53.5,132.1-53.5l36.8-17.8l70.1-34.4    l106-51.6l66.9-34.4l6.9-2.6l4.1-11.9l-3.9-3.9l-129.3,68l-8.1,8.8L374,319.5l-37.4,17.7l-1.3,0.8l-14.7-2.6L236,372.5l-1.5,4.8    l-60,25.3c0,0-17.4-4.1-38.1,1C115.7,408.7,67.5,426.2,64.8,423.2z"/>
		<path class="st6" d="M582.8,203.3l1-6.2l-15.3-26.5l-3.2-0.3l-75,42l-75.6,41.1l-117.6,65.7l-157.7,69.2l-66.7,22.8    c0,0-9.5,1.4-10-2.2c0,0-3.1,8.1,1.2,10.5l3.4,0.3c0,0,84-26,101.9-22.1l5.8,0.4l55.4-22.9l3.3-5.7l84.4-38.4l15.6,2.3l97.9-48.2    l10.2-5l10.9-11.3l107.5-55.3L582.8,203.3z"/>
		<path class="st6" d="M64.4,400.2l-1.3,6.4l8.2,1.8l122.4-46.7l70.8-31.8l122.7-64.5l130-72.1l46.9-24.7l0.4-3.9l-2.7-1.2l-72,37.7    l-160.3,90.7L182,360.4C182,360.4,72,402.1,64.4,400.2z"/>
		<path class="st1" d="M289.2,302.9c0,0-56.8-7.1-81.2-39.2c0,0,25.6-46.3,53.8-59.8c0,0,23.2-25,27.4-38.3l78.3,19.5l-36.8,36.2    c0,0-32.3,33.3-43.2-21.6c0,0-43.9,54.7-1.4,71.7c0,0,20.9,20.1,104-80.7c0,0,36.3,5,46.9,30.8l-2,4.1c0,0-132.4,78.2-138.7,76.4    C289.9,300.4,289.2,302.9,289.2,302.9z"/>
		<path class="st4" d="M441.3,221c0,0-0.3-22.5-46.7-33.3c0,0,66.3-68.8,75.3-71.6c0,0,63.8-0.6,68.1,1.2c0,0,23,35.6,22.7,38.3    c0,0,1.7,2.8-2.3,4.5c-4,1.8-110.4,59.7-112.9,61.9C442.8,224.2,441.3,221,441.3,221z"/>
		<path class="st4" d="M368.4,180.5l-98.9-25.8l1.1-2.9c0,0,17.9-4.2-0.8-18.7l0.7-3c0,0,16.4-21.5,23.5-21.7    c7.1-0.2,75.4,23.9,136.2,8.8l7.4,0.3l-64.8,62.9L368.4,180.5z"/>
		<path class="st1" d="M476.2,111c0,0,25.3-24.3,26.8-24c1.5,0.4,12.5,1.9,12.5,1.9s13.8,6.2,18.8,22.4l-1.6,1.6l-52.3-0.1    L476.2,111z"/>
		<path class="st1" d="M338.8,111.8l2.8-4.8c0,0,70.2,14.8,121.2-14.6l11.2-3.9C473.9,88.4,443.1,141.3,338.8,111.8z"/>
		<path class="st1" d="M297.1,105.7c0,0,10.3-15.9,38.9-1.7l-2.4,4.9C333.6,108.9,315,114.1,297.1,105.7z"/>
		<path class="st6" d="M451.7,93.9c0,0,22.7-20.3,26.7-39.3C478.4,54.6,471.5,50.9,451.7,93.9z"/>
		<path class="st4" d="M148.6,281.7c0,0-4.5,4-3.3,7c1.2,3.1,13.3,11.2,13.3,11.2l42.6-35.4c0,0,35.6-52.8,49.2-56.9    c13.6-4.1,32.2-39.2,32.8-41.7l-2.8-3.1l-15.4-4.6l-1,2.5c0,0,6.2,5.1,4.9,11.8c-1.3,6.8-16.8,2.9-17.8,0.7l-10.1,8.9l-0.4,1.5    l5.8,11.3l-4.2,7.2l-15.4-1.1l-4.4-1.1l-9.1,8.3c0,0,7.5,6.2,6.1,11.7c-1.4,5.6-6.6,13.7-17.8,8.2l-2.5,0.6l-4.6,7.5l-1.8,5.5    c0,0,8.1,13.4,3.5,15.8c-4.5,2.4-15.6,2.8-16.8,1.3c-1.2-1.5-7.4,2.9-7.4,2.9l-5.4,2.6l-3.1,2.8c0,0,7.6,4.3,5.5,9.6    C167,282,167,282,167,282S155,289.2,148.6,281.7z"/>
		<path class="st7" d="M287.4,201.1c0,0,4.5,25.9,18.4,30.1c13.9,4.2,36.4-20,61.7-47.1c0,0,96.7-94.6,108-97.3c0,0,17-3.6,26.5,1.1    c0,0-97,87.9-108.6,101.5c-11.7,13.6-68.5,85.5-100.2,85.1c0,0-33.7-5.2-24.8-37.6C277.1,204.5,287.4,201.1,287.4,201.1z"/>
	</g>
</g>
</svg>
